<?xml version="1.0" encoding="UTF-8" standalone="no"?>
<!-- Generator: Adobe Illustrator 12.0.0, SVG Export Plug-In . SVG Version: 6.00 Build 51448)  -->

<svg
   version="1.1"
   id="Layer_1"
   width="403.2"
   height="403.2"
   viewBox="0 0 403.2 403.2"
   overflow="visible"
   enable-background="new 0 0 403.2 403.2"
   xml:space="preserve"
   xmlns="http://www.w3.org/2000/svg"
   xmlns:svg="http://www.w3.org/2000/svg"
   xmlns:rdf="http://www.w3.org/1999/02/22-rdf-syntax-ns#"
   xmlns:cc="http://creativecommons.org/ns#"
   xmlns:dc="http://purl.org/dc/elements/1.1/"
   xmlns:i="http://ns.adobe.com/AdobeIllustrator/10.0/"><metadata
   id="metadata496"><rdf:RDF><cc:Work
       rdf:about=""><dc:format>image/svg+xml</dc:format><dc:type
         rdf:resource="http://purl.org/dc/dcmitype/StillImage" /></cc:Work></rdf:RDF></metadata><defs
   id="defs494" />
<g
   id="g3554"
   transform="matrix(1.2435003,0,0,1.2435003,-49.264979,-49.029386)"><g
     style="fill:#aa0000"
     i:extraneous="self"
     id="g7"
     transform="translate(-3.2484893,0.75899283)">
		<g
   style="fill:#aa0000"
   id="g9">
			<g
   style="fill:#aa0000"
   id="g9778">
				
			</g>
		</g>
		<g
   style="fill:#aa0000"
   id="g3234"
   transform="translate(-506.92438,347.53458)">
		</g>
		<g
   style="fill:#aa0000"
   id="g3234_1_"
   transform="translate(-506.92438,347.53458)">
		</g>
		<g
   id="g635"
   transform="matrix(1.0030864,0,0,0.99799374,1.9646272,0.16567389)"><path
     d="m 159,105.194 c -0.716,1.258 -1.549,2.442 -2.911,3.275 l -1.3,0.832 1.352,0.624 c 3.289,1.633 7.812,1.912 12.892,1.975 -1.692,0.297 -3.215,0.633 -5.718,0.728 0.967,1.807 2.081,3.647 2.235,5.25 -2.556,0.221 -4.866,0.322 -7.746,-0.468 -2.88,-0.79 -3.898,-4.158 -3.898,-4.158 0,0 -0.752,2.193 1.559,4.834 2.502,2.146 3.796,4.101 5.406,6.966 -3.522,0.505 -6.311,0.282 -8.785,-0.26 0.574,1.358 0.344,2.554 0.052,3.951 -2.569,-1.433 -5.851,-1.573 -9.253,-2.079 -3.479,-0.519 -6.689,-1.829 -9.097,-3.223 -2.277,-1.319 -3.767,-2.899 -4.263,-4.783 l -0.052,-0.364 c 0,0 0.009,-0.192 0,-0.26 0.635,-0.167 1.355,-0.358 2.08,-0.571 1.154,1.316 2.97,1.525 4.73,1.091 1.476,-0.364 2.422,-2.031 2.599,-3.951 1.384,-0.726 1.908,-1.763 1.611,-2.963 -2.948,2.208 -7.492,3.72 -10.813,4.626 0.031,-0.121 0.01,-0.236 0.052,-0.364 0.457,-1.403 1.497,-3.147 4.107,-4.522 5.414,-2.852 10.149,-3.034 17.154,-4.314 5.577,-1.02 7.044,-1.563 8.007,-1.872 z"
     id="path14"
     style="fill:#ffffff;fill-opacity:1;stroke:none;stroke-opacity:1" /><path
     d="m 245.811,105.194 c 0.963,0.31 2.431,0.852 8.006,1.872 7.005,1.281 11.74,1.463 17.154,4.314 2.609,1.375 3.649,3.119 4.106,4.522 0.041,0.128 0.021,0.244 0.052,0.364 -3.32,-0.907 -7.864,-2.419 -10.813,-4.626 -0.297,1.2 0.228,2.237 1.612,2.963 0.177,1.919 1.123,3.587 2.599,3.951 1.76,0.434 3.576,0.225 4.73,-1.091 0.724,0.213 1.444,0.404 2.079,0.571 -0.008,0.068 0,0.26 0,0.26 l -0.052,0.364 c -0.496,1.883 -1.985,3.464 -4.262,4.783 -2.409,1.394 -5.618,2.704 -9.098,3.223 -3.402,0.506 -6.685,0.646 -9.254,2.079 -0.293,-1.396 -0.521,-2.593 0.052,-3.951 -2.474,0.542 -5.263,0.765 -8.785,0.26 1.61,-2.865 2.905,-4.82 5.407,-6.966 2.311,-2.641 1.56,-4.834 1.56,-4.834 0,0 -1.02,3.369 -3.898,4.158 -2.881,0.791 -5.19,0.689 -7.746,0.468 0.155,-1.603 1.268,-3.444 2.235,-5.25 -2.502,-0.095 -4.025,-0.43 -5.719,-0.728 5.081,-0.063 9.604,-0.342 12.893,-1.975 l 1.352,-0.624 -1.299,-0.832 c -1.362,-0.833 -2.195,-2.017 -2.911,-3.275 z"
     id="path16"
     style="fill:#ffffff;fill-opacity:1;stroke:none;stroke-opacity:1" /><path
     d="m 169.344,113.563 c 1.465,1.3 2.839,2.169 4.99,2.495 -1.944,0.918 -4.357,0.972 -6.81,0.468 l -1.403,-2.392 c 1.098,-0.094 2.168,-0.308 3.223,-0.571 z"
     id="path18"
     style="fill:#ffffff;fill-opacity:1;stroke:none;stroke-opacity:1" /><path
     d="m 235.466,113.563 c 1.055,0.262 2.124,0.477 3.223,0.572 l -1.403,2.392 c -2.453,0.504 -4.865,0.45 -6.81,-0.468 2.152,-0.327 3.525,-1.195 4.99,-2.496 z"
     id="path20"
     style="fill:#ffffff;fill-opacity:1;stroke:none;stroke-opacity:1" /><path
     d="m 174.386,118.085 c 2.223,2.406 3.428,3.92 4.419,6.083 -2.366,0.429 -4.096,0.48 -6.603,-0.104 -0.766,-1.483 -1.646,-3.018 -3.067,-4.626 l 0.104,-0.052 -0.572,-0.988 c 2.229,0.27 4.102,0.164 5.719,-0.313 z"
     id="path22"
     style="fill:#ffffff;fill-opacity:1;stroke:none;stroke-opacity:1" /><path
     d="m 230.424,118.085 c 1.618,0.477 3.491,0.583 5.718,0.313 l -0.571,0.988 0.104,0.052 c -1.421,1.609 -2.3,3.144 -3.067,4.626 -2.505,0.584 -4.235,0.533 -6.602,0.104 0.99,-2.163 2.195,-3.676 4.418,-6.083 z"
     id="path24"
     style="fill:#ffffff;fill-opacity:1;stroke:none;stroke-opacity:1" /><path
     d="m 159.675,119.438 c 2.439,0.337 5.159,0.606 7.486,0.312 2.087,2.102 2.714,3.956 3.743,5.978 -2.822,0.141 -5.048,-0.05 -7.33,-0.676 -0.515,-1.111 -1.336,-2.244 -2.183,-3.379 -0.614,-0.822 -1.133,-1.502 -1.716,-2.235 z"
     id="path26"
     style="fill:#ffffff;fill-opacity:1;stroke:none;stroke-opacity:1" /><path
     d="m 245.135,119.438 c -0.584,0.733 -1.103,1.414 -1.715,2.235 -0.848,1.135 -1.67,2.268 -2.184,3.379 -2.282,0.625 -4.509,0.817 -7.33,0.676 1.028,-2.022 1.655,-3.876 3.743,-5.978 2.327,0.294 5.047,0.025 7.486,-0.312 z"
     id="path28"
     style="fill:#ffffff;fill-opacity:1;stroke:none;stroke-opacity:1" /><path
     d="m 128.121,119.802 c 0.796,2.119 2.577,3.786 4.834,5.094 1.175,0.68 2.536,1.256 3.951,1.768 -4.235,0.191 -6.618,0.875 -7.901,2.235 -1.154,1.248 -1.296,2.821 -1.352,4.367 -1.038,-0.39 -1.951,-0.873 -2.651,-1.819 -0.924,-1.25 -1.418,-3.119 -0.936,-6.083 0.407,-2.493 2.73,-4.556 4.055,-5.562 z"
     id="path30"
     style="fill:#ffffff;fill-opacity:1;stroke:none;stroke-opacity:1" /><path
     d="m 276.689,119.802 c 1.325,1.006 3.647,3.069 4.055,5.562 0.483,2.964 -0.012,4.833 -0.936,6.083 -0.701,0.947 -1.613,1.429 -2.651,1.819 -0.055,-1.545 -0.198,-3.119 -1.352,-4.367 -1.283,-1.36 -3.667,-2.043 -7.901,-2.235 1.415,-0.512 2.776,-1.087 3.95,-1.768 2.259,-1.308 4.039,-2.975 4.835,-5.094 z"
     id="path32"
     style="fill:#ffffff;fill-opacity:1;stroke:none;stroke-opacity:1" /><path
     d="m 180.312,122.712 c 1.306,0.46 2.663,1.309 3.847,2.339 1.394,1.212 1.995,2.417 2.599,3.586 -2.319,0.627 -4.412,0.725 -6.549,-0.156 -0.323,-0.84 -0.733,-1.645 -1.196,-2.391 0.504,-0.082 1.019,-0.178 1.56,-0.312 l 0.883,-0.208 -0.259,-0.832 c -0.25,-0.722 -0.546,-1.406 -0.885,-2.026 z"
     id="path34"
     style="fill:#ffffff;fill-opacity:1;stroke:none;stroke-opacity:1" /><path
     d="m 224.499,122.712 c -0.339,0.62 -0.636,1.304 -0.885,2.027 l -0.259,0.832 0.884,0.208 c 0.539,0.134 1.055,0.23 1.559,0.312 -0.462,0.747 -0.873,1.551 -1.195,2.391 -2.138,0.881 -4.229,0.783 -6.55,0.156 0.604,-1.169 1.205,-2.374 2.6,-3.586 1.183,-1.031 2.539,-1.88 3.846,-2.34 z"
     id="path36"
     style="fill:#ffffff;fill-opacity:1;stroke:none;stroke-opacity:1" /><path
     d="m 173.191,125.987 c 1.357,0.251 2.626,0.319 3.95,0.26 1.493,2.033 2.137,4.85 2.235,7.277 -2.068,-0.122 -3.598,-0.205 -5.51,-1.195 -0.214,-1.67 -0.587,-3.279 -1.092,-4.835 l 1.143,-0.104 -0.571,-1.091 c -0.054,-0.101 -0.102,-0.21 -0.155,-0.312 z"
     id="path38"
     style="fill:#ffffff;fill-opacity:1;stroke:none;stroke-opacity:1" /><path
     d="m 231.619,125.987 c -0.053,0.102 -0.101,0.21 -0.155,0.312 l -0.571,1.091 1.144,0.104 c -0.504,1.556 -0.878,3.165 -1.092,4.835 -1.912,0.99 -3.442,1.073 -5.51,1.195 0.099,-2.428 0.742,-5.244 2.235,-7.277 1.323,0.059 2.591,-0.008 3.949,-0.26 z"
     id="path40"
     style="fill:#ffffff;fill-opacity:1;stroke:none;stroke-opacity:1" /><path
     d="m 154.009,126.819 c 2.543,0.442 5.063,0.387 7.537,0.208 1.406,3.158 1.404,5.655 1.092,8.525 -0.756,-1.582 -1.604,-2.384 -2.755,-3.379 -1.834,-1.587 -3.977,-2.509 -5.874,-3.223 0.054,-0.71 0.058,-1.423 0,-2.131 z"
     id="path42"
     style="fill:#ffffff;fill-opacity:1;stroke:none;stroke-opacity:1" /><path
     d="m 250.801,126.819 c -0.058,0.708 -0.055,1.42 0,2.131 -1.896,0.714 -4.038,1.636 -5.874,3.223 -1.15,0.995 -2,1.797 -2.755,3.379 -0.313,-2.871 -0.314,-5.368 1.091,-8.525 2.475,0.18 4.995,0.235 7.538,-0.208 z"
     id="path44"
     style="fill:#ffffff;fill-opacity:1;stroke:none;stroke-opacity:1" /><path
     d="m 164.093,126.871 c 2.125,0.523 4.413,0.833 6.966,0.728 0.741,2.248 0.859,4.456 0.936,7.018 -2.703,-0.046 -5.365,-0.792 -7.382,-1.872 -0.127,-1.884 -0.543,-3.837 -1.352,-5.822 z"
     id="path46"
     style="fill:#ffffff;fill-opacity:1;stroke:none;stroke-opacity:1" /><path
     d="m 240.716,126.871 0.832,0.052 c -0.809,1.984 -1.224,3.938 -1.351,5.822 -2.018,1.079 -4.681,1.825 -7.382,1.872 0.076,-2.563 0.193,-4.771 0.935,-7.018 2.555,0.105 4.841,-0.205 6.966,-0.728 z"
     id="path48"
     style="fill:#ffffff;fill-opacity:1;stroke:none;stroke-opacity:1" /><path
     d="m 180.832,130.458 c 2.077,0.601 4.277,0.651 6.446,0.104 1.223,2.197 1.716,4.366 2.235,7.018 -2.821,0.113 -5.462,0.154 -7.642,-0.572 -0.177,-0.663 -0.348,-1.332 -0.571,-1.976 v -0.208 c 0.055,-1.328 -0.091,-2.846 -0.468,-4.366 z"
     id="path50"
     style="fill:#ffffff;fill-opacity:1;stroke:none;stroke-opacity:1" /><path
     d="m 223.977,130.458 c -0.376,1.52 -0.522,3.038 -0.467,4.366 v 0.208 c -0.224,0.644 -0.394,1.313 -0.572,1.976 -2.179,0.726 -4.82,0.685 -7.641,0.572 0.52,-2.652 1.013,-4.82 2.234,-7.018 2.171,0.547 4.371,0.497 6.446,-0.104 z"
     id="path52"
     style="fill:#ffffff;fill-opacity:1;stroke:none;stroke-opacity:1" /><path
     d="m 174.022,134.201 c 1.855,0.854 3.617,1.258 5.718,1.352 0.836,2.354 0.908,4.652 0.988,7.33 -2.713,-0.35 -5.231,-0.805 -7.225,-1.819 0.063,-1.416 -0.084,-2.869 -0.52,-4.262 0.068,0.006 0.14,-0.006 0.208,0 l 0.883,0.052 v -0.884 c 0.007,-0.595 -0.02,-1.19 -0.052,-1.769 z"
     id="path54"
     style="fill:#ffffff;fill-opacity:1;stroke:none;stroke-opacity:1" /><path
     d="m 230.789,134.201 c -0.032,0.579 -0.059,1.174 -0.053,1.768 v 0.884 l 0.883,-0.052 c 0.069,-0.006 0.141,0.006 0.209,0 -0.436,1.393 -0.583,2.847 -0.52,4.262 -1.995,1.015 -4.513,1.469 -7.226,1.819 0.08,-2.678 0.151,-4.975 0.987,-7.33 2.102,-0.093 3.864,-0.497 5.72,-1.351 z"
     id="path56"
     style="fill:#ffffff;fill-opacity:1;stroke:none;stroke-opacity:1" /><path
     d="m 164.666,134.617 c 1.892,0.89 4.133,1.548 6.446,1.923 1.235,3.049 1.098,5.887 -0.468,8.265 -0.065,-4.263 -1.858,-7.82 -6.082,-8.577 0.056,-0.531 0.088,-1.066 0.104,-1.611 z"
     id="path58"
     style="fill:#ffffff;fill-opacity:1;stroke:none;stroke-opacity:1" /><path
     d="m 240.145,134.617 c 0.016,0.545 0.047,1.08 0.104,1.611 -4.225,0.757 -6.019,4.314 -6.083,8.577 -1.564,-2.378 -1.702,-5.216 -0.468,-8.265 2.314,-0.375 4.555,-1.034 6.447,-1.923 z"
     id="path60"
     style="fill:#ffffff;fill-opacity:1;stroke:none;stroke-opacity:1" /><path
     d="m 191.541,137.527 c 3.093,0.719 5.404,2.544 7.33,5.095 -2.022,2.163 -4.382,2.987 -7.173,3.327 -0.454,-2.25 -1.169,-4.378 -2.131,-6.342 0.49,-0.014 0.971,-0.012 1.456,-0.052 l 0.883,-0.052 -0.156,-0.884 c -0.06,-0.374 -0.137,-0.723 -0.209,-1.092 z"
     id="path62"
     style="fill:#ffffff;fill-opacity:1;stroke:none;stroke-opacity:1" /><path
     d="m 213.27,137.527 c -0.072,0.368 -0.149,0.717 -0.208,1.092 l -0.156,0.884 0.884,0.052 c 0.484,0.04 0.965,0.038 1.455,0.052 -0.963,1.963 -1.678,4.091 -2.131,6.342 -2.792,-0.34 -5.152,-1.164 -7.174,-3.327 1.925,-2.55 4.236,-4.376 7.33,-5.095 z"
     id="path64"
     style="fill:#ffffff;fill-opacity:1;stroke:none;stroke-opacity:1" /><path
     d="m 289.425,137.788 c 4.221,0.283 7.101,1.514 9.409,3.379 2.648,2.141 4.579,5.232 6.549,8.941 3.68,6.923 7.122,15.514 17.259,23.757 -3.727,-0.507 -6.805,-1.896 -10.084,-4.367 -0.022,-0.068 -0.03,-0.141 -0.053,-0.208 l -0.104,0.052 c -0.882,-0.672 -1.77,-1.405 -2.703,-2.235 -5.268,-4.685 -11.19,-11.065 -16.843,-18.35 -1.445,0.973 0.298,2.583 1.352,4.055 -5.051,-0.325 -10.367,-1.396 -15.543,-2.027 0.804,1.165 3.707,1.629 6.342,2.183 -1.089,0.517 -2.244,0.918 -3.431,1.3 h -0.052 c -0.014,0.016 -0.039,0.036 -0.053,0.052 -4.577,1.458 -9.924,2.201 -16.479,3.951 1.281,0.492 2.836,0.77 6.187,-0.364 -1.204,1.69 -2.842,2.805 -4.679,3.795 -2.307,1.243 -4.594,2.846 -6.862,4.522 0.386,0.506 1.222,0.465 1.82,0 -0.408,0.837 -0.966,1.532 -1.664,2.131 -1.126,0.967 -2.604,1.738 -4.263,2.183 -3.426,0.92 -6.096,1.101 -9.046,2.235 -2.232,0.859 -4.602,2.913 -6.757,4.055 -0.965,0.51 -1.998,0.91 -3.171,0.987 -0.209,-0.01 -0.429,-0.029 -0.624,-0.052 v 0.052 c -1.19,-0.032 -2.541,-0.426 -4.158,-1.247 -0.791,-1.725 -1.408,-3.447 -1.508,-5.199 0.543,-0.055 1.068,-0.15 1.611,-0.26 1.626,0.166 2.535,0.605 3.432,1.195 0.967,0.637 2.112,1.368 3.17,1.456 1.075,0.089 1.093,-0.78 1.093,-0.78 -1.382,-0.605 -2.226,-1.354 -3.327,-2.079 -0.388,-0.255 -0.822,-0.512 -1.3,-0.728 2.018,-0.799 4.004,-1.939 5.978,-3.327 1.482,-0.531 2.643,-0.403 3.899,-0.052 1.36,0.38 2.661,0.575 3.534,0.26 1.088,-0.393 1.04,-0.988 1.04,-0.988 -1.414,0.077 -2.666,-0.416 -4.159,-0.832 -0.551,-0.154 -1.141,-0.241 -1.767,-0.312 1.884,-1.5 3.747,-3.179 5.666,-4.939 2.538,-1.586 3.667,-1.371 5.042,-0.987 1.375,0.384 3.153,0.352 4.159,-0.104 1.216,-0.552 1.04,-1.196 1.04,-1.196 -2.156,0.683 -3.237,0.121 -4.783,-0.312 -0.662,-0.185 -1.433,-0.353 -2.287,-0.311 1.034,-0.965 2.057,-1.885 3.119,-2.859 1.708,-1.566 3.46,-3.126 5.25,-4.627 2.431,-0.863 3.475,-0.488 4.678,0.104 1.281,0.63 3.5,0.951 4.783,0.676 0.682,-0.146 1.196,-1.143 1.196,-1.143 -2.244,0.275 -3.811,-0.332 -5.251,-1.04 -0.721,-0.354 -1.553,-0.664 -2.599,-0.728 -0.049,-0.003 -0.106,0.002 -0.157,0 2.497,-1.94 5.078,-3.756 7.799,-5.25 3.163,-1.15 3.897,-0.38 7.121,1.299 2.137,1.113 2.651,0.468 2.651,0.468 -0.695,-0.655 -1.595,-1.968 -3.171,-2.911 -0.654,-0.391 -1.434,-0.726 -2.339,-0.884 3.209,-1.311 6.581,-2.116 10.188,-2.339 2.578,-0.088 3.425,1.587 5.25,4.367 1.231,1.874 1.768,1.611 1.768,1.611 -0.311,-0.904 -0.447,-2.538 -1.403,-4.107 -0.413,-0.681 -0.978,-1.34 -1.765,-1.922 z"
     id="path66"
     style="fill:#ffffff;fill-opacity:1;stroke:none;stroke-opacity:1" /><path
     d="m 182.288,138.828 c 1.645,0.457 3.503,0.706 5.406,0.779 1.154,2.196 1.56,4.391 2.027,7.018 -2.595,0.049 -4.972,-0.018 -7.018,-0.624 -0.069,-0.293 -0.172,-0.591 -0.26,-0.884 h 0.364 v -0.883 c 0.021,-1.874 -0.185,-3.665 -0.519,-5.406 z"
     id="path68"
     style="fill:#ffffff;fill-opacity:1;stroke:none;stroke-opacity:1" /><path
     d="m 222.523,138.828 c -0.335,1.742 -0.54,3.532 -0.521,5.406 v 0.883 h 0.365 c -0.088,0.293 -0.191,0.591 -0.261,0.884 -2.047,0.606 -4.423,0.672 -7.018,0.624 0.466,-2.626 0.873,-4.821 2.027,-7.018 1.905,-0.074 3.763,-0.322 5.408,-0.779 z"
     id="path70"
     style="fill:#ffffff;fill-opacity:1;stroke:none;stroke-opacity:1" /><path
     d="m 173.294,142.83 c 1.099,0.525 2.295,0.992 3.587,1.352 1.529,3.074 0.322,6.421 -1.872,8.733 -0.129,-1.443 -0.195,-2.981 -0.52,-4.002 -0.413,-1.301 -1.107,-2.315 -2.131,-3.223 0.463,-0.874 0.735,-1.857 0.936,-2.86 z"
     id="path72"
     style="fill:#ffffff;fill-opacity:1;stroke:none;stroke-opacity:1" /><path
     d="m 231.516,142.83 c 0.201,1.004 0.474,1.986 0.935,2.859 -1.022,0.908 -1.717,1.922 -2.131,3.223 -0.325,1.021 -0.39,2.559 -0.519,4.002 -2.194,-2.312 -3.401,-5.659 -1.872,-8.733 1.292,-0.36 2.489,-0.826 3.587,-1.351 z"
     id="path74"
     style="fill:#ffffff;fill-opacity:1;stroke:none;stroke-opacity:1" /><path
     d="m 200.482,143.974 c 1.396,3.054 0.797,7.317 -3.119,9.721 -0.056,-1.163 -0.454,-1.961 -0.936,-3.119 -0.528,-1.27 -1.171,-2.419 -1.872,-3.328 0.612,-0.198 1.208,-0.438 1.819,-0.727 1.476,-0.698 2.915,-1.615 4.108,-2.547 z"
     id="path76"
     style="fill:#ffffff;fill-opacity:1;stroke:none;stroke-opacity:1" /><path
     d="m 204.329,143.974 c 1.192,0.932 2.632,1.849 4.106,2.547 0.612,0.289 1.207,0.529 1.82,0.727 -0.701,0.909 -1.345,2.058 -1.872,3.328 -0.48,1.158 -0.88,1.956 -0.936,3.119 -3.916,-2.404 -4.514,-6.667 -3.118,-9.721 z"
     id="path78"
     style="fill:#ffffff;fill-opacity:1;stroke:none;stroke-opacity:1" /><path
     d="m 178.857,144.65 c 0.602,0.119 1.209,0.18 1.819,0.259 1.024,2.879 1.015,5.867 0.208,8.057 -0.714,1.939 -2.05,3.068 -3.951,3.379 -0.097,-0.919 -0.34,-1.684 -0.572,-2.235 2.305,-2.453 3.577,-6.038 2.496,-9.46 z"
     id="path80"
     style="fill:#ffffff;fill-opacity:1;stroke:none;stroke-opacity:1" /><path
     d="m 225.954,144.65 c -1.082,3.422 0.191,7.007 2.496,9.46 -0.232,0.551 -0.477,1.316 -0.572,2.235 -1.901,-0.311 -3.237,-1.44 -3.951,-3.379 -0.808,-2.19 -0.816,-5.178 0.207,-8.057 0.61,-0.079 1.217,-0.14 1.82,-0.259 z"
     id="path82"
     style="fill:#ffffff;fill-opacity:1;stroke:none;stroke-opacity:1" /><path
     d="m 192.685,147.664 c 0.672,0.675 1.612,2.038 2.235,3.535 0.674,1.621 0.945,3.362 0.624,4.263 l -0.624,1.715 1.715,-0.676 c 0.399,-0.156 0.785,-0.33 1.144,-0.52 1.264,2.349 1.116,4.616 -0.208,6.549 -1.214,1.773 -3.272,2.903 -6.342,3.587 0.281,-0.992 0.065,-1.814 0,-2.859 -0.088,-1.419 -0.452,-2.771 -1.04,-3.847 0.805,-1.21 1.282,-2.61 1.508,-4.055 0.355,-2.281 0.113,-4.661 -0.624,-6.706 0.052,-0.003 0.104,0.004 0.155,0 l 0.884,-0.104 -0.104,-0.832 c 0.22,0 0.454,-0.026 0.677,-0.05 z"
     id="path84"
     style="fill:#ffffff;fill-opacity:1;stroke:none;stroke-opacity:1" /><path
     d="m 212.125,147.664 c 0.223,0.024 0.457,0.05 0.677,0.052 l -0.104,0.832 0.885,0.104 c 0.052,0.004 0.104,-0.003 0.155,0 -0.737,2.045 -0.98,4.425 -0.624,6.706 0.225,1.445 0.703,2.844 1.507,4.055 -0.586,1.076 -0.95,2.428 -1.038,3.847 -0.065,1.045 -0.281,1.867 0,2.859 -3.07,-0.684 -5.129,-1.814 -6.343,-3.587 -1.325,-1.934 -1.473,-4.2 -0.208,-6.549 0.359,0.189 0.745,0.364 1.145,0.52 l 1.715,0.676 -0.625,-1.715 c -0.32,-0.9 -0.05,-2.642 0.625,-4.263 0.621,-1.499 1.562,-2.862 2.233,-3.537 z"
     id="path86"
     style="fill:#ffffff;fill-opacity:1;stroke:none;stroke-opacity:1" /><path
     d="m 183.068,147.873 c 1.889,0.508 4.042,0.801 6.186,0.832 0.768,1.861 1.117,4.229 0.78,6.394 -0.347,2.225 -1.302,3.679 -3.171,4.834 -0.201,-3.043 -1.384,-5.969 -4.003,-7.797 0.296,-1.328 0.371,-2.777 0.208,-4.263 z"
     id="path88"
     style="fill:#ffffff;fill-opacity:1;stroke:none;stroke-opacity:1" /><path
     d="m 221.743,147.873 c -0.163,1.487 -0.089,2.935 0.208,4.262 -2.618,1.828 -3.802,4.754 -4.002,7.797 -1.869,-1.155 -2.824,-2.61 -3.171,-4.834 -0.338,-2.165 0.012,-4.533 0.779,-6.394 2.143,-0.03 4.297,-0.324 6.186,-0.831 z"
     id="path90"
     style="fill:#ffffff;fill-opacity:1;stroke:none;stroke-opacity:1" /><path
     d="m 202.405,150.523 c 0.581,1.703 1.628,3.3 3.223,4.522 -1.362,2.463 -1.421,5.094 -0.365,7.33 -0.012,0.542 -0.328,1.464 -0.883,2.339 -0.484,0.766 -1.166,1.417 -1.923,1.976 -0.848,-0.542 -1.662,-1.187 -2.131,-1.976 -0.553,-0.93 -0.771,-1.922 -0.728,-2.391 1.026,-2.222 0.933,-4.838 -0.416,-7.278 1.595,-1.221 2.643,-2.819 3.223,-4.522 z"
     id="path92"
     style="fill:#ffffff;fill-opacity:1;stroke:none;stroke-opacity:1" /><path
     d="m 182.339,153.851 c 2.11,1.78 3.012,5.02 2.912,7.85 l -0.052,1.247 1.195,-0.468 c 0.423,-0.167 0.826,-0.352 1.196,-0.572 0.083,2.215 -0.814,3.983 -2.495,5.198 -1.806,1.306 -4.107,1.421 -7.382,0.936 2.06,-3.414 1.919,-7.108 0.832,-10.241 1.743,-0.692 3.056,-2.16 3.794,-3.95 z"
     id="path94"
     style="fill:#ffffff;fill-opacity:1;stroke:none;stroke-opacity:1" /><path
     d="m 222.47,153.851 c 0.739,1.791 2.053,3.259 3.795,3.95 -1.088,3.133 -1.228,6.828 0.832,10.241 -3.274,0.485 -5.576,0.37 -7.382,-0.936 -1.681,-1.215 -2.578,-2.983 -2.495,-5.198 0.37,0.22 0.772,0.405 1.195,0.572 l 1.196,0.468 -0.053,-1.247 c -0.1,-2.831 0.802,-6.07 2.912,-7.85 z"
     id="path96"
     style="fill:#ffffff;fill-opacity:1;stroke:none;stroke-opacity:1" /><path
     d="m 284.539,155.046 c 1.347,0.692 3.063,0.928 4.887,0.988 2.731,5.145 5.142,12.335 7.485,20.585 2.655,9.347 4.76,19.172 6.03,26.564 -2.36,-2.64 -5.143,-6.944 -7.954,-12.112 1.299,0.233 2.533,0.163 3.482,-0.52 -1.836,-0.293 -3.403,-1.037 -4.886,-2.132 -0.597,-1.153 -1.179,-2.326 -1.768,-3.535 -1.987,-4.084 -3.9,-8.433 -5.718,-12.788 1.457,0.462 2.873,0.622 4.003,-0.052 -2.062,-0.511 -3.753,-1.554 -5.303,-3.067 -1.623,-4.019 -3.119,-7.992 -4.419,-11.645 0.725,-0.477 1.39,-0.986 1.924,-1.507 0.766,-0.224 1.503,-0.483 2.237,-0.779 z"
     id="path98"
     style="fill:#ffffff;fill-opacity:1;stroke:none;stroke-opacity:1" /><path
     d="m 296.338,155.306 c 4.15,4.803 8.094,9.305 11.957,12.788 1.252,5.33 3.197,10.974 5.614,16.634 1.546,3.902 3.335,7.662 5.405,11.229 0.096,0.18 0.216,0.339 0.312,0.52 0.181,0.305 0.335,0.633 0.521,0.935 2.25,4.14 4.002,7.724 6.238,11.281 -7.511,-3.255 -13.467,-8.269 -17.57,-15.336 1.572,0.268 3.102,0.248 4.158,-0.623 -2.141,-0.197 -3.942,-1.003 -5.718,-2.288 -2.927,-5.833 -5.327,-12.318 -7.485,-18.609 1.667,0.624 3.336,0.978 4.626,0.208 -2.285,-0.566 -4.077,-1.808 -5.77,-3.587 -1.552,-4.595 -3.015,-9.002 -4.472,-12.684 0.774,-0.13 1.527,-0.284 2.184,-0.468 z"
     id="path100"
     style="fill:#ffffff;fill-opacity:1;stroke:none;stroke-opacity:1" /><path
     d="m 276.689,159.309 c 2.788,5.305 6.58,16.714 9.202,24.952 1.409,4.427 2.58,10.251 3.534,16.062 -2.586,-1.968 -4.955,-4.834 -7.226,-8.421 0.856,-0.061 1.707,-0.246 2.494,-0.676 -1.295,-0.233 -2.513,-0.667 -3.689,-1.3 -0.501,-0.854 -1.013,-1.735 -1.508,-2.651 -1.398,-2.583 -2.791,-5.456 -4.211,-8.421 1.403,0.083 2.787,-0.148 3.847,-0.78 -2.087,-0.517 -3.794,-1.271 -5.406,-2.495 -1.654,-3.493 -3.366,-7.135 -5.25,-10.865 1.292,-1.187 2.379,-2.417 2.963,-3.639 1.561,-0.312 3.425,-0.945 5.25,-1.766 z"
     id="path102"
     style="fill:#ffffff;fill-opacity:1;stroke:none;stroke-opacity:1" /><path
     d="m 265.149,167.47 c 2.776,4.981 4.477,7.084 7.07,15.231 1.485,4.67 2.524,8.589 3.43,13.672 -3.591,-2.336 -6.063,-4.672 -8.473,-8.058 -1.133,-1.592 -2.266,-3.493 -3.482,-5.666 1.709,0.033 3.369,-0.453 4.521,-1.403 -2.694,-0.247 -4.601,-0.947 -6.652,-2.547 -1.13,-2.15 -2.347,-4.525 -3.744,-7.278 0.903,-0.394 1.771,-0.818 2.548,-1.404 1.327,-0.35 3.06,-1.32 4.782,-2.547 z"
     id="path112"
     style="fill:#ffffff;fill-opacity:1;stroke:none;stroke-opacity:1" /><path
     d="m 313.442,172.096 c 2.32,1.54 4.688,2.696 7.173,3.379 3.143,13.049 10.222,24.758 17.623,36.024 -11.796,-7.936 -19.425,-23.492 -24.796,-39.403 z"
     id="path120"
     style="fill:#ffffff;fill-opacity:1;stroke:none;stroke-opacity:1" /><path
     d="m 253.868,172.824 c 2.777,5.009 5.23,9.015 6.082,12.32 0.59,2.283 0.952,5.146 1.509,9.253 -3.357,-2.316 -5.324,-4.786 -6.966,-7.642 -0.207,-0.359 -0.376,-0.769 -0.571,-1.143 0.896,-0.051 1.805,-0.225 2.547,-0.676 -1.352,-0.239 -2.62,-0.948 -3.899,-2.079 -0.994,-2.198 -2.002,-4.618 -3.223,-7.277 0.17,-0.111 0.361,-0.198 0.52,-0.313 0.896,-0.642 1.599,-1.285 2.08,-2.027 0.636,-0.139 1.268,-0.25 1.921,-0.416 z"
     id="path122"
     style="fill:#ffffff;fill-opacity:1;stroke:none;stroke-opacity:1" /><path
     d="m 245.864,177.451 c 2.577,4.723 3.646,7.001 4.522,10.396 0.583,2.262 0.83,4.243 0.571,7.069 -2.617,-1.807 -4.217,-3.752 -5.666,-6.186 -1.498,-2.516 -2.863,-5.74 -4.678,-9.669 1.679,-0.344 3.408,-0.854 4.989,-1.508 0.09,-0.035 0.174,-0.065 0.262,-0.102 z"
     id="path128"
     style="fill:#ffffff;fill-opacity:1;stroke:none;stroke-opacity:1" /><path
     d="m 232.868,178.802 c 1.017,0.331 1.969,0.525 2.859,0.572 v 0.051 c 0.235,0.028 0.482,0.04 0.727,0.052 2.959,4.517 3.371,6.469 4.887,9.721 0.317,0.68 0.701,1.369 1.145,2.079 1.984,7.532 3.713,14.506 5.77,20.533 -0.047,3.533 -0.522,6.859 -1.352,10.033 -1.423,-4.721 -2.804,-10.285 -5.771,-19.129 -0.312,-0.932 -0.687,-1.864 -1.092,-2.809 -0.004,-0.035 -0.048,-0.066 -0.052,-0.103 -0.591,-5.008 -2.176,-10.985 -4.834,-14.556 0.412,1.859 0.424,3.122 -0.365,4.315 -1.174,-2.219 -2.263,-4.411 -3.117,-6.55 0.668,-0.181 1.351,-0.383 2.026,-0.676 l 0.832,-0.364 -0.416,-0.78 c -0.434,-0.815 -0.833,-1.605 -1.247,-2.389 z"
     id="path134"
     style="fill:#ffffff;fill-opacity:1;stroke:none;stroke-opacity:1" /><path
     d="m 300.965,185.196 c 0.916,2.415 1.908,4.812 2.964,7.122 0.692,1.399 1.641,3.724 2.391,4.574 1.528,11.271 6.317,26.092 11.279,36.753 3.375,7.247 5.883,13.092 7.591,18.453 -5.633,-6.933 -10.581,-14.21 -14.815,-22.093 1.723,0.346 3.146,0.667 4.73,-0.156 -1.655,-0.154 -5.294,-2.612 -7.538,-5.405 -2.657,-5.589 -4.941,-11.498 -6.861,-17.779 1.26,1.281 2.557,2.402 3.898,3.275 l 1.508,0.987 -0.209,-1.818 c -0.699,-5.521 -2.613,-14.726 -4.938,-23.913 z"
     id="path146"
     style="fill:#ffffff;fill-opacity:1;stroke:none;stroke-opacity:1" /><path
     d="m 288.23,186.392 c 0.177,0.408 0.333,0.777 0.52,1.195 1.457,3.277 3.127,6.642 4.99,9.772 1.281,7.797 3.046,15.903 5.874,23.393 2.123,5.623 4.301,11.214 5.822,16.791 -4.921,-5.142 -8.57,-9.38 -11.488,-13.983 1.611,0.323 2.963,0.574 4.471,-0.208 -1.688,-0.159 -5.464,-2.696 -7.694,-5.563 -2.122,-4.41 -3.927,-9.636 -5.821,-16.321 2.005,2.092 4.108,3.915 6.238,5.301 l 1.507,0.987 -0.26,-1.767 c -0.809,-6.367 -2.507,-13.855 -4.159,-19.597 z"
     id="path148"
     style="fill:#ffffff;fill-opacity:1;stroke:none;stroke-opacity:1" /><path
     d="m 262.133,187.224 c 0.091,0.162 0.167,0.302 0.26,0.468 1.202,2.114 2.419,3.854 3.744,5.406 1.514,11.074 3.355,15.023 5.354,20.949 1.646,4.878 3.151,9.515 3.743,15.023 -3.718,-3.59 -6.891,-8.324 -9.461,-13.62 1.986,0.377 3.549,0.858 5.302,-0.053 -1.734,-0.163 -5.597,-2.858 -7.797,-5.821 -1.477,-3.846 -2.668,-7.813 -3.587,-11.748 0.946,0.546 1.978,1.055 3.171,1.508 l 1.299,0.468 -0.155,-1.352 c -0.689,-5.428 -1.292,-8.645 -1.873,-11.228 z"
     id="path150"
     style="fill:#ffffff;fill-opacity:1;stroke:none;stroke-opacity:1" /><path
     d="m 275.753,188.315 c 0.711,1.489 1.582,2.99 2.495,4.471 1.498,10.959 2.811,15.796 5.771,23.341 2.134,5.44 3.078,9.248 3.638,13.775 -3.545,-3.319 -6.439,-7.274 -8.836,-11.904 1.914,0.371 3.438,0.835 5.146,-0.053 -1.695,-0.158 -5.467,-2.734 -7.693,-5.612 -1.68,-4.215 -3.109,-8.919 -4.367,-14.089 1.586,1.084 3.358,2.118 5.354,3.171 l 1.404,0.78 -0.207,-1.611 c -0.601,-4.725 -1.578,-8.576 -2.705,-12.269 z"
     id="path152"
     style="fill:#ffffff;fill-opacity:1;stroke:none;stroke-opacity:1" /><path
     d="m 252.672,190.446 c 0.465,0.879 1.077,1.778 1.768,2.703 1.479,10.706 2.726,14.432 4.314,19.442 1.246,3.925 1.797,7.662 2.027,12.477 -2.661,-3.042 -4.993,-6.757 -6.965,-11.072 1.592,0.348 2.672,0.617 4.262,-0.208 -1.626,-0.153 -4.352,-2.465 -6.445,-5.199 -1.204,-3.362 -2.231,-6.99 -3.119,-10.864 0.859,0.646 1.751,1.297 2.756,1.872 l 0.987,0.571 0.259,-1.093 c 0.784,-3.568 0.598,-6.27 0.156,-8.629 z"
     id="path154"
     style="fill:#ffffff;fill-opacity:1;stroke:none;stroke-opacity:1" /><path
     d="m 312.766,203.961 c 3.314,2.941 7.027,5.304 10.76,7.122 0.006,0.016 -0.006,0.036 0,0.052 3.692,10.242 4.49,17.1 9.772,27.76 3.941,7.951 5.857,15.246 7.175,21.677 -6.617,-6.596 -12.179,-15.156 -16.688,-24.588 1.84,0.364 3.33,0.759 4.99,-0.104 -1.607,-0.151 -5.125,-2.454 -7.381,-5.146 -3.71,-8.706 -6.529,-17.888 -8.628,-26.773 z"
     id="path184"
     style="fill:#ffffff;fill-opacity:1;stroke:none;stroke-opacity:1" /><path
     d="m 328.1,207.756 c 2.236,2.26 4.71,4.254 7.382,5.979 3.738,10.349 8.953,23.636 15.022,33.842 5.262,8.843 9.621,16.584 13.36,24.795 -9.883,-8.488 -18.56,-20.231 -25.056,-32.645 1.656,0.333 3.035,0.591 4.574,-0.208 -1.524,-0.143 -4.766,-2.169 -7.018,-4.679 -3.42,-7.258 -6.063,-14.624 -7.745,-21.574 0.636,0.233 1.3,0.478 1.923,0.676 l 2.392,0.781 -1.455,-2.027 c -1.133,-1.569 -2.256,-3.225 -3.379,-4.94 z"
     id="path196"
     style="fill:#ffffff;fill-opacity:1;stroke:none;stroke-opacity:1" /><path
     d="m 171.475,223.3 c 0.099,1.668 0.504,3.332 1.04,4.782 0.408,2.02 -0.889,4.388 -3.223,6.237 -1.859,1.474 -4.265,2.313 -6.55,2.548 1.18,-1.49 2.157,-3.23 2.703,-5.198 0.443,-1.595 0.634,-3.259 0.625,-4.887 2.14,-0.502 3.994,-1.778 5.405,-3.482 z"
     id="path220"
     style="fill:#ffffff;fill-opacity:1;stroke:none;stroke-opacity:1" /><path
     d="m 233.335,223.3 c 1.41,1.704 3.265,2.979 5.406,3.482 -0.011,1.628 0.181,3.292 0.624,4.887 0.546,1.968 1.522,3.708 2.702,5.198 -2.285,-0.235 -4.691,-1.074 -6.549,-2.548 -2.374,-1.881 -3.697,-4.3 -3.224,-6.342 0.522,-1.428 0.945,-3.043 1.041,-4.677 z"
     id="path222"
     style="fill:#ffffff;fill-opacity:1;stroke:none;stroke-opacity:1" /><path
     d="m 180.572,228.655 c -0.416,2.731 0.141,5.751 0.936,7.9 l 0.156,0.364 0.416,0.104 c 0.066,0.018 0.141,0.035 0.208,0.051 -1.913,3.253 -4.728,4.753 -8.993,4.575 -0.91,-2.542 -1.653,-6.13 -0.572,-8.474 h -0.052 c 0.698,-0.93 1.204,-1.928 1.456,-2.963 2.074,0.272 4.404,-0.329 6.445,-1.557 z"
     id="path232"
     style="fill:#ffffff;fill-opacity:1;stroke:none;stroke-opacity:1" /><path
     d="m 224.239,228.655 c 2.04,1.229 4.371,1.829 6.445,1.559 0.251,1.035 0.758,2.033 1.456,2.963 h -0.053 c 1.081,2.344 0.442,5.983 -0.469,8.525 -3.962,0.25 -6.792,-1.104 -9.096,-4.627 0.067,-0.016 0.142,-0.033 0.208,-0.051 l 0.416,-0.104 0.155,-0.364 c 0.796,-2.15 1.353,-5.17 0.938,-7.901 z"
     id="path234"
     style="fill:#ffffff;fill-opacity:1;stroke:none;stroke-opacity:1" /><path
     d="m 170.436,235.464 c -0.237,2.644 0.43,5.504 1.248,7.536 l 0.156,0.417 0.416,0.104 c 0.085,0.021 0.173,0.033 0.26,0.052 -0.768,1.419 -2.34,2.748 -4.367,3.534 -2.354,0.914 -5.14,0.742 -7.693,-0.52 3.985,-1.857 6.198,-5.541 5.771,-8.682 1.458,-0.562 2.856,-1.337 4.054,-2.287 0.056,-0.043 0.098,-0.109 0.155,-0.154 z"
     id="path238"
     style="fill:#ffffff;fill-opacity:1;stroke:none;stroke-opacity:1" /><path
     d="m 234.375,235.464 c 0.057,0.045 0.1,0.11 0.156,0.155 1.198,0.95 2.595,1.726 4.055,2.287 -0.429,3.141 1.785,6.824 5.77,8.682 -2.553,1.262 -5.339,1.434 -7.693,0.52 -2.026,-0.786 -3.599,-2.115 -4.366,-3.534 0.087,-0.019 0.174,-0.031 0.26,-0.052 l 0.417,-0.104 0.155,-0.417 c 0.816,-2.033 1.483,-4.893 1.246,-7.537 z"
     id="path240"
     style="fill:#ffffff;fill-opacity:1;stroke:none;stroke-opacity:1" /><path
     d="m 189.409,235.932 c -0.086,0.834 -0.039,1.688 0.052,2.495 -0.267,1.991 -1.934,4.457 -4.21,6.289 -2.085,1.679 -4.518,2.573 -6.862,2.6 -0.221,-1.403 -0.12,-3.245 0.468,-4.782 0.153,-0.075 0.316,-0.127 0.467,-0.208 2.026,-1.088 3.829,-2.781 4.679,-5.043 1.724,0.042 3.652,-0.4 5.406,-1.351 z"
     id="path242"
     style="fill:#ffffff;fill-opacity:1;stroke:none;stroke-opacity:1" /><path
     d="m 215.401,235.932 c 1.755,0.951 3.683,1.393 5.406,1.351 0.85,2.262 2.653,3.955 4.679,5.043 0.15,0.081 0.313,0.133 0.468,0.208 0.589,1.537 0.585,3.431 0.363,4.835 -2.344,-0.028 -4.672,-0.974 -6.758,-2.652 -2.295,-1.847 -3.964,-4.341 -4.21,-6.341 0.085,-0.792 0.136,-1.629 0.052,-2.444 z"
     id="path244"
     style="fill:#ffffff;fill-opacity:1;stroke:none;stroke-opacity:1" /><path
     d="m 197.311,238.79 c 0.103,0.868 0.371,1.728 0.78,2.496 -0.327,1.963 -1.889,4.349 -4.107,6.135 -2.097,1.688 -4.455,2.533 -6.81,2.547 -0.229,-1.547 -0.212,-3.689 0.52,-5.251 1.036,-1.04 1.938,-2.186 2.547,-3.379 h 0.572 c 2.319,-0.079 4.566,-1.082 6.498,-2.548 z"
     id="path246"
     style="fill:#ffffff;fill-opacity:1;stroke:none;stroke-opacity:1" /><path
     d="m 207.5,238.79 c 1.932,1.467 4.178,2.47 6.496,2.548 h 0.572 c 0.608,1.193 1.511,2.339 2.548,3.379 0.731,1.562 0.801,3.704 0.571,5.251 -2.354,-0.014 -4.766,-0.859 -6.861,-2.547 -2.182,-1.756 -3.744,-4.086 -4.107,-6.029 0.42,-0.806 0.707,-1.667 0.781,-2.602 z"
     id="path248"
     style="fill:#ffffff;fill-opacity:1;stroke:none;stroke-opacity:1" /><path
     d="m 199.338,243.053 c 0.654,0.76 1.384,1.404 2.131,1.924 0.008,0.209 0.077,0.411 0.104,0.624 -0.384,2.123 -2.042,4.931 -4.263,7.173 -2.317,2.341 -5.12,3.845 -7.277,3.951 -0.27,-1.642 -0.176,-3.719 0.312,-5.407 1.684,-0.562 3.274,-1.469 4.678,-2.599 1.987,-1.597 3.553,-3.592 4.315,-5.666 z"
     id="path250"
     style="fill:#ffffff;fill-opacity:1;stroke:none;stroke-opacity:1" /><path
     d="m 205.472,243.209 c 0.782,2.024 2.372,3.946 4.314,5.51 1.403,1.13 2.995,2.037 4.679,2.599 0.488,1.688 0.582,3.766 0.313,5.407 -2.158,-0.106 -4.961,-1.61 -7.277,-3.951 -2.222,-2.242 -3.879,-5.05 -4.263,-7.173 0.023,-0.193 0.043,-0.383 0.051,-0.572 0.793,-0.532 1.547,-1.123 2.183,-1.82 z"
     id="path252"
     style="fill:#ffffff;fill-opacity:1;stroke:none;stroke-opacity:1" /><path
     d="m 176.777,243.314 c -0.479,1.801 -0.576,3.763 -0.104,5.303 l 0.208,0.519 0.52,0.052 c 2.739,0.244 5.538,-0.807 7.901,-2.442 -0.141,0.703 -0.2,1.437 -0.208,2.131 -2.38,0.561 -4.213,2.074 -5.354,3.848 -1.085,1.686 -1.574,3.554 -1.247,5.197 -0.845,0.317 -2.121,0.416 -3.483,0.156 -1.778,-0.338 -3.518,-1.243 -4.418,-2.495 -0.018,-1.919 0.548,-4.366 1.56,-6.603 1.03,-2.276 2.434,-4.339 3.795,-5.457 0.275,-0.056 0.555,-0.133 0.83,-0.209 z"
     id="path254"
     style="fill:#ffffff;fill-opacity:1;stroke:none;stroke-opacity:1" /><path
     d="m 228.033,243.314 c 0.276,0.076 0.557,0.153 0.831,0.208 1.361,1.118 2.766,3.181 3.795,5.457 1.013,2.236 1.578,4.684 1.561,6.603 -0.9,1.252 -2.641,2.157 -4.418,2.495 -1.363,0.26 -2.639,0.161 -3.484,-0.156 0.326,-1.644 -0.161,-3.512 -1.247,-5.197 -1.141,-1.773 -2.975,-3.287 -5.354,-3.848 -0.008,-0.694 -0.067,-1.428 -0.208,-2.131 2.363,1.636 5.162,2.687 7.902,2.442 l 0.52,-0.052 0.208,-0.519 c 0.47,-1.539 0.373,-3.501 -0.106,-5.302 z"
     id="path256"
     style="fill:#ffffff;fill-opacity:1;stroke:none;stroke-opacity:1" /><path
     d="m 171.007,247.472 c -0.135,0.272 -0.238,0.553 -0.364,0.831 -1.124,2.483 -1.84,5.199 -1.767,7.539 v 0.208 l 0.104,0.154 c 1.013,1.652 2.81,2.673 4.679,3.224 -1.645,0.919 -3.548,1.235 -5.354,1.04 -2.045,-0.222 -3.869,-1.064 -4.938,-2.132 -0.3,-1.117 -0.24,-3.106 0.312,-4.938 0.575,-1.908 1.66,-3.551 2.703,-4.055 v -0.052 c 0.813,-0.143 1.598,-0.337 2.339,-0.623 0.819,-0.318 1.581,-0.732 2.286,-1.196 z"
     id="path258"
     style="fill:#ffffff;fill-opacity:1;stroke:none;stroke-opacity:1" /><path
     d="m 233.803,247.472 c 0.705,0.464 1.467,0.878 2.287,1.196 0.741,0.286 1.526,0.48 2.339,0.623 v 0.052 c 1.044,0.504 2.129,2.146 2.703,4.055 0.552,1.832 0.612,3.821 0.313,4.938 -1.07,1.067 -2.894,1.91 -4.939,2.132 -1.806,0.195 -3.709,-0.121 -5.354,-1.04 1.868,-0.551 3.666,-1.571 4.678,-3.224 l 0.104,-0.154 v -0.208 c 0.073,-2.34 -0.644,-5.056 -1.768,-7.539 -0.125,-0.278 -0.228,-0.558 -0.363,-0.831 z"
     id="path260"
     style="fill:#ffffff;fill-opacity:1;stroke:none;stroke-opacity:1" /><path
     d="m 202.405,248.409 c 0.77,1.703 1.955,3.406 3.379,4.938 0.221,1.338 -0.063,2.501 -0.729,3.588 -0.596,0.974 -1.55,1.604 -2.598,2.339 -0.93,-0.659 -1.93,-1.288 -2.599,-2.339 -0.745,-1.173 -1.101,-2.4 -0.832,-3.588 1.425,-1.532 2.608,-3.235 3.379,-4.938 z"
     id="path262"
     style="fill:#ffffff;fill-opacity:1;stroke:none;stroke-opacity:1" /><path
     d="m 160.767,248.875 c 0.998,0.353 2.004,0.52 3.015,0.571 -0.735,0.979 -1.283,2.221 -1.664,3.483 -0.538,1.786 -0.71,3.612 -0.468,5.146 -3.235,0.991 -6.089,0.939 -8.421,-0.26 -2.239,-1.152 -3.998,-3.63 -5.302,-7.174 1.993,0.507 4.188,0.803 6.342,0.623 2.645,-0.217 5.086,-0.894 6.498,-2.389 z"
     id="path264"
     style="fill:#ffffff;fill-opacity:1;stroke:none;stroke-opacity:1" /><path
     d="m 244.043,248.875 c 1.411,1.494 3.854,2.172 6.498,2.391 2.153,0.18 4.35,-0.116 6.342,-0.623 -1.304,3.544 -3.063,6.021 -5.303,7.174 -2.331,1.199 -5.186,1.251 -8.42,0.26 0.242,-1.534 0.07,-3.36 -0.469,-5.146 -0.38,-1.263 -0.929,-2.504 -1.664,-3.483 1.013,-0.053 2.018,-0.22 3.016,-0.573 z"
     id="path266"
     style="fill:#ffffff;fill-opacity:1;stroke:none;stroke-opacity:1" /><path
     d="m 185.199,250.54 c 0.048,0.265 0.132,0.533 0.208,0.778 l 0.156,0.521 0.572,0.052 c 0.799,0.07 1.594,0.026 2.392,-0.104 -0.328,1.476 -0.517,3.042 -0.364,4.522 -0.679,0.638 -2.026,1.331 -3.535,1.664 -1.599,0.353 -3.262,0.225 -4.418,-0.364 -0.203,-1.07 0.035,-2.604 0.936,-4.003 0.891,-1.386 2.285,-2.564 4.053,-3.066 z"
     id="path268"
     style="fill:#ffffff;fill-opacity:1;stroke:none;stroke-opacity:1" /><path
     d="m 219.612,250.54 c 1.768,0.502 3.162,1.681 4.055,3.066 0.9,1.398 1.138,2.933 0.936,4.003 -1.156,0.589 -2.819,0.717 -4.418,0.364 -1.509,-0.333 -2.856,-1.026 -3.535,-1.664 0.152,-1.48 -0.036,-3.047 -0.364,-4.522 0.798,0.131 1.592,0.175 2.391,0.104 l 0.572,-0.052 0.156,-0.521 c 0.075,-0.245 0.159,-0.514 0.207,-0.778 z"
     id="path270"
     style="fill:#ffffff;fill-opacity:1;stroke:none;stroke-opacity:1" /><path
     d="m 197.363,255.01 c 0.174,0.995 0.555,1.963 1.092,2.807 0.484,0.762 1.088,1.48 1.715,2.079 -0.367,0.932 -1.193,2.034 -2.339,2.808 -1.037,0.699 -2.313,1.029 -3.639,0.988 l -0.104,-0.054 c -0.14,-0.783 -0.26,-1.796 -0.156,-2.962 0.129,-1.437 0.51,-2.87 0.936,-3.691 l -0.104,-0.051 c 0.885,-0.547 1.779,-1.202 2.599,-1.924 z"
     id="path272"
     style="fill:#ffffff;fill-opacity:1;stroke:none;stroke-opacity:1" /><path
     d="m 207.5,255.01 c 0.809,0.712 1.672,1.385 2.547,1.924 l -0.105,0.051 c 0.426,0.821 0.809,2.255 0.938,3.691 0.104,1.166 -0.016,2.179 -0.156,2.962 l -0.105,0.054 c -1.324,0.041 -2.601,-0.289 -3.639,-0.988 -1.129,-0.762 -1.963,-1.832 -2.339,-2.756 0.719,-0.634 1.376,-1.321 1.872,-2.131 0.513,-0.843 0.864,-1.789 0.987,-2.807 z"
     id="path274"
     style="fill:#ffffff;fill-opacity:1;stroke:none;stroke-opacity:1" /><path
     d="m 192.736,257.973 c -0.202,0.806 -0.337,1.664 -0.416,2.547 -0.141,1.58 -0.14,3.127 0.208,4.263 l 0.104,0.416 c -0.57,0.434 -1.242,0.83 -1.975,1.143 -1.53,0.653 -3.168,0.858 -4.418,0.468 -0.438,-1.038 -0.548,-2.629 0,-4.21 0.592,-1.711 1.81,-3.302 3.743,-4.056 0.916,-0.023 1.826,-0.207 2.754,-0.571 z"
     id="path276"
     style="fill:#ffffff;fill-opacity:1;stroke:none;stroke-opacity:1" /><path
     d="m 212.074,257.973 c 0.929,0.364 1.839,0.548 2.755,0.57 1.934,0.754 3.15,2.345 3.743,4.056 0.547,1.581 0.438,3.172 0,4.21 -1.251,0.391 -2.889,0.186 -4.419,-0.468 -0.732,-0.313 -1.405,-0.709 -1.975,-1.143 l 0.104,-0.416 c 0.349,-1.136 0.35,-2.683 0.208,-4.263 -0.079,-0.882 -0.214,-1.74 -0.416,-2.546 z"
     id="path278"
     style="fill:#ffffff;fill-opacity:1;stroke:none;stroke-opacity:1" /><path
     d="m 141.896,259.012 c 3.383,1.832 7.203,2.371 11.333,0.571 2.67,1.12 5.761,1.076 9.045,0.053 1.087,1.032 2.547,1.818 4.21,2.235 -0.907,0.808 -1.718,1.785 -2.391,2.859 -0.033,0.052 -0.071,0.102 -0.104,0.155 -0.528,0.206 -1.021,0.474 -1.508,0.78 -5.468,0.631 -10.519,0.01 -14.451,-1.612 -2.773,-1.142 -4.693,-2.928 -6.134,-5.041 z"
     id="path280"
     style="fill:#ffffff;fill-opacity:1;stroke:none;stroke-opacity:1" /><path
     d="m 262.914,259.012 c -1.44,2.113 -3.36,3.898 -6.134,5.042 -3.932,1.622 -8.983,2.243 -14.451,1.612 -0.486,-0.307 -0.979,-0.574 -1.508,-0.78 -0.033,-0.054 -0.07,-0.104 -0.104,-0.155 -0.673,-1.074 -1.484,-2.052 -2.391,-2.859 1.663,-0.417 3.124,-1.203 4.211,-2.235 3.284,1.023 6.375,1.067 9.044,-0.053 4.129,1.799 7.95,1.26 11.333,-0.572 z"
     id="path282"
     style="fill:#ffffff;fill-opacity:1;stroke:none;stroke-opacity:1" /><path
     d="m 179.636,259.273 c 1.619,0.759 3.574,0.756 5.354,0.363 0.42,-0.093 0.802,-0.231 1.196,-0.363 -0.689,0.828 -1.176,1.798 -1.507,2.755 -0.723,2.086 -0.707,4.276 0.156,5.874 -2.393,1.923 -4.903,2.353 -7.174,1.976 -2.314,-0.385 -4.25,-1.648 -5.354,-2.912 0.866,-2.563 2.362,-5.876 4.523,-7.069 1.033,-0.022 2.017,-0.17 2.806,-0.624 z"
     id="path284"
     style="fill:#ffffff;fill-opacity:1;stroke:none;stroke-opacity:1" /><path
     d="m 218.624,259.273 c 0.395,0.132 0.776,0.271 1.196,0.363 1.78,0.393 3.735,0.396 5.354,-0.363 0.79,0.454 1.773,0.602 2.808,0.623 2.161,1.193 3.657,4.506 4.522,7.069 -1.104,1.264 -3.039,2.527 -5.354,2.912 -2.271,0.377 -4.781,-0.053 -7.173,-1.976 0.862,-1.598 0.878,-3.788 0.155,-5.874 -0.332,-0.956 -0.819,-1.926 -1.508,-2.754 z"
     id="path286"
     style="fill:#ffffff;fill-opacity:1;stroke:none;stroke-opacity:1" /><path
     d="m 201.521,260.936 c 0.165,0.114 0.305,0.264 0.468,0.363 l 0.416,0.313 0.468,-0.313 c 0.16,-0.1 0.311,-0.205 0.468,-0.312 0.563,1.14 1.474,2.238 2.704,3.066 1.094,0.739 2.408,1.244 3.847,1.353 0.021,10e-4 0.031,0.05 0.051,0.052 0.125,0.143 0.275,0.28 0.417,0.416 0.594,2.04 0,3.818 -1.508,5.51 -1.451,1.628 -3.768,2.526 -6.394,3.69 -2.254,-0.996 -4.682,-1.956 -6.29,-3.69 -1.681,-1.813 -2.442,-3.65 -1.716,-5.458 0.169,-0.16 0.323,-0.35 0.468,-0.52 1.439,-0.108 2.752,-0.613 3.847,-1.353 1.251,-0.843 2.195,-1.953 2.754,-3.117 z"
     id="path288"
     style="fill:#ffffff;fill-opacity:1;stroke:none;stroke-opacity:1" /><path
     d="m 172.827,261.664 c -1.098,1.729 -1.845,3.688 -2.339,5.251 l -0.104,0.415 0.208,0.312 c 1.047,1.404 2.812,2.648 4.938,3.379 -1.452,0.946 -3.28,1.363 -5.094,1.352 v -0.052 c -0.072,0.004 -0.137,0.047 -0.208,0.052 -0.477,-0.011 -0.935,-0.035 -1.403,-0.104 -2.256,-0.328 -4.187,-1.356 -5.25,-2.547 0.432,-1.25 1.054,-2.72 1.923,-4.106 0.968,-1.545 2.193,-2.859 3.379,-3.432 v -0.053 c 1.305,0.053 2.659,-0.031 3.95,-0.467 z"
     id="path290"
     style="fill:#ffffff;fill-opacity:1;stroke:none;stroke-opacity:1" /><path
     d="m 231.984,261.664 c 1.29,0.437 2.646,0.521 3.95,0.467 v 0.053 c 1.188,0.572 2.411,1.887 3.379,3.432 0.87,1.387 1.491,2.856 1.924,4.106 -1.064,1.19 -2.994,2.219 -5.25,2.547 -0.47,0.068 -0.927,0.093 -1.404,0.104 -0.07,-0.005 -0.137,-0.048 -0.208,-0.052 v 0.052 c -1.814,0.012 -3.643,-0.405 -5.095,-1.352 2.128,-0.73 3.892,-1.975 4.939,-3.379 l 0.207,-0.312 -0.104,-0.415 c -0.493,-1.563 -1.239,-3.523 -2.338,-5.251 z"
     id="path292"
     style="fill:#ffffff;fill-opacity:1;stroke:none;stroke-opacity:1" /><path
     d="m 152.761,267.122 c 2.357,0.393 4.894,0.516 7.538,0.363 -1.584,1.698 -2.866,3.918 -3.743,6.447 -0.182,0.521 -0.32,1.067 -0.468,1.611 -5.102,1.758 -8.603,5.754 -10.657,10.188 -0.509,-3.549 -0.38,-7.18 0.676,-10.292 1.301,-3.834 3.662,-6.864 6.654,-8.317 z"
     id="path294"
     style="fill:#ffffff;fill-opacity:1;stroke:none;stroke-opacity:1" /><path
     d="m 252.049,267.122 c 2.991,1.453 5.354,4.483 6.654,8.317 1.055,3.112 1.185,6.743 0.676,10.292 -2.054,-4.434 -5.556,-8.43 -10.656,-10.188 -0.148,-0.544 -0.288,-1.09 -0.469,-1.611 -0.878,-2.529 -2.158,-4.749 -3.742,-6.447 2.643,0.152 5.18,0.029 7.537,-0.363 z"
     id="path296"
     style="fill:#ffffff;fill-opacity:1;stroke:none;stroke-opacity:1" /><path
     d="m 192.58,267.225 c -0.021,1.854 0.925,3.631 2.288,5.146 -0.034,0.137 -0.077,0.277 -0.104,0.416 -0.007,0.08 0.007,0.18 0,0.261 -0.969,4.593 -3.33,6.663 -5.979,7.485 -0.378,-1.006 -0.669,-2.657 -0.571,-4.835 0.105,-2.329 0.472,-4.892 0.832,-7.12 0.784,-0.146 1.561,-0.418 2.287,-0.729 0.442,-0.188 0.842,-0.395 1.247,-0.624 z"
     id="path298"
     style="fill:#ffffff;fill-opacity:1;stroke:none;stroke-opacity:1" /><path
     d="m 212.282,267.278 c 0.388,0.214 0.775,0.393 1.195,0.571 0.728,0.312 1.504,0.583 2.289,0.729 0.358,2.229 0.726,4.791 0.83,7.12 0.099,2.178 -0.193,3.829 -0.571,4.835 -2.695,-0.838 -5.042,-2.979 -5.978,-7.746 l -0.053,-0.208 c 0,0 0.064,-0.06 0.104,-0.104 1.331,-1.492 2.186,-3.29 2.184,-5.197 z"
     id="path300"
     style="fill:#ffffff;fill-opacity:1;stroke:none;stroke-opacity:1" /><path
     d="m 162.69,267.539 c -0.339,0.778 -0.673,1.518 -0.884,2.183 l -0.156,0.416 0.26,0.312 c 1.007,1.35 2.64,2.317 4.523,2.911 -2.23,1.097 -4.104,2.945 -5.614,4.991 -1.543,2.088 -2.644,4.332 -3.535,6.497 -0.409,-3.534 -0.265,-7.184 0.832,-10.345 1.037,-2.991 2.674,-5.461 4.574,-6.965 z"
     id="path302"
     style="fill:#ffffff;fill-opacity:1;stroke:none;stroke-opacity:1" /><path
     d="m 242.121,267.539 c 1.9,1.505 3.537,3.975 4.574,6.965 1.097,3.161 1.241,6.811 0.831,10.345 -0.891,-2.165 -1.99,-4.409 -3.534,-6.497 -1.512,-2.046 -3.384,-3.895 -5.614,-4.991 1.884,-0.594 3.515,-1.562 4.522,-2.911 l 0.261,-0.312 -0.156,-0.416 c -0.212,-0.666 -0.546,-1.405 -0.884,-2.183 z"
     id="path304"
     style="fill:#ffffff;fill-opacity:1;stroke:none;stroke-opacity:1" /><path
     d="m 186.602,268.629 c 0.188,0.027 0.382,-0.012 0.572,0 -0.113,2.513 -0.903,5.905 -2.287,8.941 -0.004,0.032 0.005,0.07 0,0.104 -0.342,0.744 -0.734,1.46 -1.143,2.131 -1.112,1.824 -2.426,3.29 -3.899,4.107 -1.208,0.67 -2.547,0.794 -4.002,0.467 2.183,-3.585 4.103,-8.513 4.834,-12.787 2.002,-0.287 4.038,-1.213 5.925,-2.963 z"
     id="path306"
     style="fill:#ffffff;fill-opacity:1;stroke:none;stroke-opacity:1" /><path
     d="m 217.636,268.629 c 0.189,-0.012 0.384,0.027 0.571,0 1.887,1.75 3.924,2.676 5.926,2.963 0.733,4.274 2.652,9.202 4.836,12.787 -1.456,0.327 -2.795,0.203 -4.004,-0.467 -1.473,-0.817 -2.786,-2.283 -3.898,-4.107 -2.084,-3.419 -3.285,-8.019 -3.431,-11.176 z"
     id="path308"
     style="fill:#ffffff;fill-opacity:1;stroke:none;stroke-opacity:1" /><path
     d="m 172.827,273.827 c -0.396,0.529 -0.748,1.097 -1.092,1.664 -1.149,1.9 -1.721,3.687 -2.339,5.407 -0.445,-1.185 -1.031,-2.358 -1.092,-3.483 -0.068,-1.256 0.135,-2.387 0.364,-3.066 0.542,-0.156 1.082,-0.32 1.664,-0.364 0.847,0.019 1.659,-0.006 2.495,-0.158 z"
     id="path310"
     style="fill:#ffffff;fill-opacity:1;stroke:none;stroke-opacity:1" /><path
     d="m 196.375,273.827 c 1.55,1.312 3.358,2.413 5.146,3.224 -0.534,4.229 -2.447,6.178 -4.626,7.122 -0.354,-0.938 -0.729,-2.264 -0.78,-4.159 -0.053,-2.007 0.097,-4.211 0.26,-6.187 z"
     id="path312"
     style="fill:#ffffff;fill-opacity:1;stroke:none;stroke-opacity:1" /><path
     d="m 231.984,273.827 c 0.836,0.152 1.648,0.178 2.495,0.157 0.581,0.044 1.121,0.208 1.663,0.364 0.229,0.68 0.433,1.811 0.363,3.066 -0.06,1.125 -0.646,2.299 -1.091,3.483 -0.618,-1.721 -1.189,-3.507 -2.34,-5.407 -0.343,-0.567 -0.695,-1.134 -1.09,-1.663 z"
     id="path314"
     style="fill:#ffffff;fill-opacity:1;stroke:none;stroke-opacity:1" /><path
     d="m 208.435,273.984 c 0.159,1.937 0.312,4.075 0.26,6.029 -0.05,1.896 -0.425,3.222 -0.779,4.159 -2.179,-0.944 -4.092,-2.893 -4.626,-7.122 1.924,-0.862 3.68,-1.881 5.145,-3.066 z"
     id="path316"
     style="fill:#ffffff;fill-opacity:1;stroke:none;stroke-opacity:1" /><path
     d="m 186.55,277.934 c 0.032,1.622 0.252,3.051 0.884,4.106 l 0.312,0.521 0.572,-0.104 c 0.896,-0.191 1.758,-0.53 2.599,-0.988 -0.625,2.538 -1.671,5.113 -3.119,6.862 -0.905,1.092 -1.96,1.846 -3.067,2.183 -0.834,0.254 -1.845,-0.014 -2.859,-0.312 2.148,-3.495 3.9,-7.77 4.575,-12.008 0.038,-0.084 0.066,-0.175 0.103,-0.26 z"
     id="path318"
     style="fill:#ffffff;fill-opacity:1;stroke:none;stroke-opacity:1" /><path
     d="m 218.26,277.934 c 0.037,0.085 0.065,0.176 0.104,0.261 0.674,4.238 2.426,8.513 4.574,12.008 -1.015,0.298 -2.024,0.565 -2.858,0.312 -1.106,-0.337 -2.162,-1.091 -3.067,-2.183 -1.448,-1.749 -2.492,-4.324 -3.118,-6.862 0.841,0.458 1.702,0.797 2.599,0.988 l 0.572,0.104 0.311,-0.521 c 0.631,-1.056 0.851,-2.485 0.883,-4.107 z"
     id="path320"
     style="fill:#ffffff;fill-opacity:1;stroke:none;stroke-opacity:1" /><path
     d="m 194.503,278.143 c -0.013,0.649 -0.068,1.295 -0.052,1.923 0.064,2.404 0.281,4.494 1.196,5.873 l 0.364,0.521 0.572,-0.156 c 0.175,-0.052 0.348,-0.145 0.52,-0.208 -0.193,1.071 -0.374,2.12 -0.624,3.12 -0.411,1.645 -1.056,3.257 -1.872,4.625 -1.196,2.227 -2.896,3.313 -5.042,3.848 -0.208,0.052 -0.459,0.089 -0.676,0.104 0.626,-3.972 2.101,-10.07 3.224,-14.4 0.363,-1.147 0.699,-2.303 0.883,-3.43 0.543,-0.522 1.054,-1.13 1.507,-1.82 z"
     id="path322"
     style="fill:#ffffff;fill-opacity:1;stroke:none;stroke-opacity:1" /><path
     d="m 210.307,278.143 c 0.453,0.69 0.964,1.298 1.507,1.818 0.194,1.193 0.54,2.426 0.936,3.639 1.119,4.318 2.502,10.119 3.119,14.036 -2.324,-0.159 -4.2,-1.335 -5.666,-3.796 -0.841,-1.411 -1.507,-3.084 -1.924,-4.781 -0.217,-0.884 -0.37,-1.914 -0.571,-2.964 0.172,0.063 0.345,0.156 0.52,0.208 l 0.572,0.156 0.364,-0.521 c 0.915,-1.379 1.131,-3.469 1.195,-5.873 0.016,-0.627 -0.039,-1.273 -0.052,-1.922 z"
     id="path324"
     style="fill:#ffffff;fill-opacity:1;stroke:none;stroke-opacity:1" /><path
     d="m 202.405,280.534 c 0.815,2.186 2.099,3.74 3.587,4.729 0.074,1.312 0.277,2.704 0.623,4.055 -0.046,1.524 -0.571,3.72 -1.404,5.771 -0.813,2.002 -1.892,3.107 -2.806,4.158 -0.873,-1.019 -1.878,-1.961 -2.703,-3.846 -0.88,-2.013 -1.489,-4.242 -1.507,-6.083 0.346,-1.351 0.549,-2.743 0.623,-4.055 1.489,-0.989 2.772,-2.544 3.587,-4.729 z"
     id="path326"
     style="fill:#ffffff;fill-opacity:1;stroke:none;stroke-opacity:1" /><path
     d="m 183.587,282.873 c -0.94,2.753 -2.248,5.402 -3.691,7.538 l -0.52,0.779 0.884,0.416 c 0.742,0.354 1.47,0.563 2.183,0.676 -1.685,5.07 -4.717,10.828 -8.785,15.543 -3.919,4.542 -8.359,7.878 -13.776,9.148 7.132,-7.176 13.437,-17.043 17.623,-30.67 1.108,-0.073 2.17,-0.41 3.119,-0.936 1.106,-0.613 2.097,-1.479 2.963,-2.494 z"
     id="path328"
     style="fill:#ffffff;fill-opacity:1;stroke:none;stroke-opacity:1" /><path
     d="m 221.223,282.873 c 0.865,1.016 1.856,1.882 2.962,2.495 0.949,0.525 2.011,0.862 3.12,0.936 4.185,13.627 10.281,23.391 17.414,30.566 -5.415,-1.271 -9.648,-4.503 -13.567,-9.045 -4.067,-4.715 -7.101,-10.473 -8.784,-15.543 0.713,-0.112 1.439,-0.322 2.183,-0.676 l 0.884,-0.416 -0.52,-0.779 c -1.445,-2.136 -2.751,-4.786 -3.692,-7.538 z"
     id="path330"
     style="fill:#ffffff;fill-opacity:1;stroke:none;stroke-opacity:1" /><path
     d="m 188.785,289.682 c -0.83,3.381 -1.569,6.731 -1.871,9.149 l -0.104,0.832 0.78,0.104 c 0.271,0.034 0.516,0.05 0.78,0.053 -1.55,5.247 -3.884,11.105 -7.382,15.802 -3.356,4.507 -7.383,7.571 -13.204,8.474 6.09,-7.409 12.412,-17.648 16.634,-31.709 l -0.156,-0.053 c 0.345,-0.042 0.661,-0.109 0.988,-0.208 1.392,-0.424 2.537,-1.311 3.535,-2.444 z"
     id="path332"
     style="fill:#ffffff;fill-opacity:1;stroke:none;stroke-opacity:1" /><path
     d="m 216.025,289.682 c 0.999,1.133 2.144,2.02 3.534,2.443 0.327,0.099 0.643,0.166 0.988,0.208 l -0.156,0.053 c 4.223,14.061 10.648,24.404 16.738,31.813 -5.82,-0.903 -9.951,-4.071 -13.308,-8.578 -3.498,-4.696 -5.831,-10.555 -7.381,-15.802 0.263,-0.003 0.508,-0.019 0.779,-0.053 l 0.78,-0.104 -0.104,-0.832 c -0.301,-2.416 -1.04,-5.767 -1.87,-9.148 z"
     id="path334"
     style="fill:#ffffff;fill-opacity:1;stroke:none;stroke-opacity:1" /><path
     d="m 207.759,292.645 c 0.311,0.703 0.655,1.384 1.04,2.027 1.318,2.215 3.167,4.042 5.405,4.783 4.337,13.564 11.257,23.201 16.376,30.462 -5.975,-1.157 -10.84,-5.912 -15.023,-12.216 -1.158,-1.746 -2.238,-3.56 -3.224,-5.406 l -0.155,-0.313 c -2.846,-5.396 -4.898,-10.932 -6.03,-14.971 0.195,-0.422 0.393,-0.86 0.571,-1.301 0.411,-1.009 0.766,-2.053 1.04,-3.065 z"
     id="path336"
     style="fill:#ffffff;fill-opacity:1;stroke:none;stroke-opacity:1" /><path
     d="m 196.999,292.75 c 0.292,1.13 0.68,2.267 1.144,3.326 0.159,0.363 0.349,0.693 0.52,1.04 -1.137,4.033 -3.206,9.51 -6.03,14.867 h -0.104 c -0.022,0.11 -0.03,0.203 -0.052,0.313 -0.984,1.847 -2.064,3.66 -3.223,5.406 -4.184,6.304 -8.945,10.955 -14.919,12.111 5.119,-7.26 11.935,-16.793 16.271,-30.357 2.239,-0.741 4.087,-2.568 5.406,-4.783 0.364,-0.613 0.689,-1.257 0.987,-1.923 z"
     id="path338"
     style="fill:#ffffff;fill-opacity:1;stroke:none;stroke-opacity:1" /><path
     d="m 205.055,299.04 c 1.227,3.977 3.152,8.942 5.719,13.827 1.969,9.817 2.066,15.138 2.444,22.041 -3.46,-2.449 -6.061,-7.551 -7.694,-13.672 -1.306,-4.894 -2.007,-10.263 -2.286,-15.022 0.098,-1.732 0.168,-3.36 0.155,-4.887 0.595,-0.614 1.13,-1.388 1.662,-2.287 z"
     id="path340"
     style="fill:#ffffff;fill-opacity:1;stroke:none;stroke-opacity:1" /><path
     d="m 199.754,299.09 c 0.546,0.881 1.106,1.641 1.664,2.236 -0.013,1.526 0.057,3.154 0.156,4.887 -0.28,4.76 -0.981,10.129 -2.287,15.022 -1.633,6.121 -4.235,11.223 -7.693,13.672 0.378,-6.903 0.475,-12.224 2.443,-22.041 2.555,-4.864 4.491,-9.805 5.717,-13.776 z"
     id="path342"
     style="fill:#ffffff;fill-opacity:1;stroke:none;stroke-opacity:1" /><path
     d="m 202.405,314.426 c 0.379,2.43 0.879,4.873 1.508,7.226 0.517,1.943 1.164,3.803 1.871,5.563 h -0.053 c 0.274,2.826 -1.41,5.801 -3.327,7.849 -1.828,-2.032 -3.685,-4.98 -3.327,-7.798 h -0.052 c 0.714,-1.773 1.348,-3.653 1.872,-5.614 0.628,-2.353 1.128,-4.796 1.508,-7.226 z"
     id="path344"
     style="fill:#ffffff;fill-opacity:1;stroke:none;stroke-opacity:1" /><path
     d="m 191.593,317.129 c -0.661,3.982 -0.976,7.23 -1.196,10.293 -2.176,3.215 -4.731,5.755 -8.785,7.693 -0.145,-2.94 0.566,-5.582 1.923,-8.108 2.654,-2.323 5.039,-5.23 7.122,-8.37 0.326,-0.492 0.624,-1.006 0.936,-1.508 z"
     id="path346"
     style="fill:#ffffff;fill-opacity:1;stroke:none;stroke-opacity:1" /><path
     d="m 213.218,317.129 c 0.311,0.502 0.609,1.016 0.935,1.508 2.083,3.14 4.469,6.047 7.122,8.37 1.357,2.526 2.068,5.168 1.925,8.108 -4.055,-1.938 -6.611,-4.479 -8.787,-7.693 -0.22,-3.062 -0.535,-6.31 -1.195,-10.293 z"
     id="path348"
     style="fill:#ffffff;fill-opacity:1;stroke:none;stroke-opacity:1" /><path
     d="m 115.214,138.081 c -4.221,0.283 -7.101,1.514 -9.409,3.379 -2.649,2.141 -4.579,5.232 -6.55,8.941 -3.679,6.923 -7.122,15.514 -17.258,23.757 3.727,-0.507 6.804,-1.896 10.084,-4.367 0.022,-0.068 0.03,-0.141 0.052,-0.208 l 0.104,0.051 c 0.881,-0.671 1.77,-1.404 2.703,-2.235 5.268,-4.685 11.191,-11.065 16.843,-18.35 1.445,0.972 -0.298,2.583 -1.352,4.054 5.052,-0.325 10.368,-1.396 15.543,-2.027 -0.804,1.165 -3.708,1.629 -6.341,2.183 1.088,0.517 2.244,0.917 3.43,1.3 h 0.052 c 0.014,0.016 0.039,0.035 0.052,0.052 4.578,1.458 9.925,2.201 16.479,3.95 -1.281,0.492 -2.834,0.771 -6.186,-0.363 1.204,1.69 2.841,2.804 4.679,3.795 2.306,1.243 4.593,2.846 6.862,4.522 -0.386,0.505 -1.222,0.465 -1.82,0 0.408,0.837 0.966,1.532 1.664,2.131 1.126,0.968 2.604,1.738 4.262,2.184 3.427,0.92 6.097,1.101 9.046,2.235 2.233,0.859 4.602,2.913 6.757,4.055 0.965,0.51 1.998,0.91 3.171,0.987 0.209,-0.01 0.428,-0.029 0.624,-0.052 v 0.052 c 1.19,-0.032 2.542,-0.427 4.159,-1.247 0.792,-1.725 1.408,-3.447 1.507,-5.199 -0.543,-0.055 -1.068,-0.15 -1.611,-0.26 -1.626,0.166 -2.534,0.605 -3.432,1.195 -0.967,0.637 -2.112,1.368 -3.17,1.456 -1.075,0.088 -1.092,-0.78 -1.092,-0.78 1.381,-0.606 2.226,-1.354 3.328,-2.079 0.387,-0.255 0.821,-0.512 1.299,-0.728 -2.018,-0.799 -4.004,-1.939 -5.978,-3.326 -1.481,-0.532 -2.642,-0.403 -3.899,-0.053 -1.36,0.38 -2.661,0.575 -3.534,0.26 -1.088,-0.392 -1.04,-0.988 -1.04,-0.988 1.415,0.077 2.666,-0.416 4.159,-0.832 0.552,-0.154 1.141,-0.242 1.768,-0.312 -1.883,-1.5 -3.747,-3.18 -5.667,-4.938 -2.539,-1.586 -3.667,-1.372 -5.042,-0.987 -1.375,0.384 -3.153,0.352 -4.159,-0.104 -1.217,-0.552 -1.04,-1.196 -1.04,-1.196 2.155,0.683 3.236,0.121 4.782,-0.312 0.663,-0.185 1.433,-0.353 2.288,-0.312 -1.035,-0.965 -2.057,-1.885 -3.12,-2.859 -1.708,-1.567 -3.46,-3.126 -5.25,-4.627 -2.431,-0.863 -3.475,-0.488 -4.679,0.104 -1.281,0.63 -3.5,0.952 -4.782,0.676 -0.683,-0.147 -1.197,-1.144 -1.197,-1.144 2.244,0.275 3.811,-0.331 5.251,-1.04 0.72,-0.354 1.553,-0.664 2.599,-0.728 0.049,-0.002 0.107,0.002 0.157,0 -2.497,-1.939 -5.078,-3.756 -7.798,-5.25 -3.164,-1.15 -3.898,-0.379 -7.122,1.3 -2.136,1.113 -2.651,0.468 -2.651,0.468 0.695,-0.655 1.594,-1.969 3.171,-2.911 0.654,-0.391 1.434,-0.726 2.339,-0.884 -3.209,-1.311 -6.581,-2.116 -10.188,-2.339 -2.578,-0.088 -3.425,1.587 -5.25,4.367 -1.232,1.875 -1.768,1.611 -1.768,1.611 0.311,-0.903 0.448,-2.537 1.403,-4.107 0.417,-0.679 0.981,-1.338 1.768,-1.921 z"
     id="path351"
     style="fill:#ffffff;fill-opacity:1;stroke:none;stroke-opacity:1" /><path
     d="m 120.101,155.339 c -1.347,0.691 -3.063,0.928 -4.887,0.988 -2.731,5.145 -5.141,12.334 -7.485,20.585 -2.656,9.347 -4.76,19.172 -6.03,26.564 2.36,-2.641 5.142,-6.945 7.954,-12.113 -1.299,0.234 -2.532,0.164 -3.483,-0.52 1.837,-0.292 3.404,-1.037 4.887,-2.132 0.596,-1.153 1.179,-2.326 1.768,-3.535 1.988,-4.084 3.9,-8.433 5.718,-12.788 -1.457,0.462 -2.873,0.622 -4.002,-0.052 2.062,-0.51 3.753,-1.553 5.302,-3.066 1.624,-4.019 3.12,-7.992 4.418,-11.645 -0.723,-0.477 -1.389,-0.986 -1.923,-1.507 -0.766,-0.224 -1.503,-0.483 -2.237,-0.779 z"
     id="path353"
     style="fill:#ffffff;fill-opacity:1;stroke:none;stroke-opacity:1" /><path
     d="m 108.301,155.599 c -4.149,4.804 -8.093,9.305 -11.956,12.788 -1.252,5.329 -3.198,10.974 -5.615,16.634 -1.546,3.902 -3.335,7.662 -5.405,11.229 -0.096,0.18 -0.216,0.34 -0.312,0.52 -0.181,0.305 -0.335,0.634 -0.52,0.936 -2.25,4.141 -4.002,7.724 -6.238,11.281 7.511,-3.255 13.466,-8.269 17.57,-15.336 -1.573,0.268 -3.102,0.247 -4.159,-0.623 2.142,-0.197 3.943,-1.004 5.718,-2.288 2.927,-5.833 5.328,-12.319 7.486,-18.609 -1.667,0.623 -3.336,0.978 -4.627,0.207 2.285,-0.565 4.078,-1.807 5.77,-3.586 1.551,-4.596 3.015,-9.002 4.472,-12.684 -0.774,-0.13 -1.527,-0.284 -2.184,-0.469 z"
     id="path355"
     style="fill:#ffffff;fill-opacity:1;stroke:none;stroke-opacity:1" /><path
     d="m 127.951,159.602 c -2.789,5.305 -6.58,16.714 -9.201,24.952 -1.41,4.428 -2.581,10.251 -3.535,16.063 2.586,-1.968 4.955,-4.835 7.226,-8.421 -0.857,-0.061 -1.708,-0.246 -2.495,-0.676 1.296,-0.234 2.513,-0.668 3.69,-1.3 0.501,-0.854 1.012,-1.735 1.508,-2.651 1.397,-2.583 2.791,-5.456 4.21,-8.421 -1.403,0.082 -2.787,-0.148 -3.847,-0.78 2.086,-0.517 3.794,-1.271 5.406,-2.496 1.654,-3.492 3.366,-7.135 5.25,-10.864 -1.292,-1.187 -2.379,-2.418 -2.963,-3.639 -1.56,-0.312 -3.424,-0.945 -5.249,-1.767 z"
     id="path357"
     style="fill:#ffffff;fill-opacity:1;stroke:none;stroke-opacity:1" /><path
     d="m 139.491,167.763 c -2.777,4.981 -4.478,7.084 -7.07,15.231 -1.486,4.67 -2.525,8.588 -3.431,13.672 3.591,-2.336 6.064,-4.672 8.474,-8.058 1.133,-1.593 2.264,-3.494 3.482,-5.667 -1.709,0.033 -3.37,-0.453 -4.522,-1.403 2.694,-0.247 4.601,-0.947 6.654,-2.547 1.129,-2.149 2.346,-4.525 3.743,-7.277 -0.903,-0.394 -1.771,-0.818 -2.547,-1.404 -1.328,-0.35 -3.062,-1.319 -4.783,-2.547 z"
     id="path359"
     style="fill:#ffffff;fill-opacity:1;stroke:none;stroke-opacity:1" /><path
     d="m 91.199,172.39 c -2.32,1.54 -4.688,2.696 -7.174,3.379 -3.143,13.05 -10.221,24.759 -17.623,36.024 11.795,-7.936 19.426,-23.492 24.797,-39.403 z"
     id="path361"
     style="fill:#ffffff;fill-opacity:1;stroke:none;stroke-opacity:1" /><path
     d="m 150.771,173.118 c -2.776,5.009 -5.23,9.015 -6.082,12.32 -0.588,2.283 -0.951,5.145 -1.508,9.252 3.357,-2.316 5.324,-4.785 6.966,-7.641 0.207,-0.359 0.375,-0.769 0.571,-1.143 -0.895,-0.051 -1.805,-0.225 -2.547,-0.676 1.352,-0.239 2.621,-0.949 3.899,-2.08 0.994,-2.198 2.002,-4.618 3.223,-7.278 -0.17,-0.11 -0.361,-0.197 -0.519,-0.312 -0.896,-0.642 -1.599,-1.286 -2.08,-2.027 -0.637,-0.139 -1.27,-0.249 -1.923,-0.415 z"
     id="path363"
     style="fill:#ffffff;fill-opacity:1;stroke:none;stroke-opacity:1" /><path
     d="m 158.776,177.744 c -2.577,4.723 -3.647,7.001 -4.523,10.397 -0.583,2.262 -0.83,4.242 -0.57,7.069 2.616,-1.808 4.216,-3.752 5.665,-6.186 1.499,-2.517 2.864,-5.74 4.679,-9.669 -1.679,-0.344 -3.408,-0.854 -4.99,-1.508 -0.089,-0.035 -0.173,-0.066 -0.261,-0.103 z"
     id="path365"
     style="fill:#ffffff;fill-opacity:1;stroke:none;stroke-opacity:1" /><path
     d="m 171.773,179.096 c -1.018,0.331 -1.97,0.525 -2.86,0.572 v 0.052 c -0.235,0.028 -0.482,0.04 -0.727,0.052 -2.958,4.517 -3.37,6.469 -4.886,9.721 -0.317,0.68 -0.701,1.368 -1.144,2.079 -1.984,7.532 -3.713,14.506 -5.77,20.533 0.047,3.533 0.521,6.859 1.352,10.032 1.422,-4.719 2.803,-10.285 5.77,-19.13 0.312,-0.93 0.687,-1.862 1.091,-2.807 0.004,-0.036 0.048,-0.067 0.051,-0.103 0.592,-5.008 2.176,-10.985 4.835,-14.557 -0.413,1.859 -0.425,3.121 0.364,4.314 1.175,-2.219 2.264,-4.411 3.119,-6.55 -0.67,-0.181 -1.351,-0.382 -2.027,-0.676 l -0.832,-0.364 0.416,-0.779 c 0.433,-0.816 0.834,-1.605 1.248,-2.389 z"
     id="path367"
     style="fill:#ffffff;fill-opacity:1;stroke:none;stroke-opacity:1" /><path
     d="m 103.674,185.49 c -0.917,2.414 -1.908,4.812 -2.963,7.122 -0.692,1.398 -1.641,3.724 -2.391,4.574 -1.529,11.271 -6.317,26.091 -11.28,36.752 -3.375,7.248 -5.882,13.092 -7.59,18.454 5.632,-6.934 10.581,-14.21 14.815,-22.093 -1.723,0.346 -3.147,0.667 -4.731,-0.156 1.655,-0.154 5.294,-2.612 7.538,-5.405 2.658,-5.589 4.942,-11.499 6.862,-17.779 -1.261,1.281 -2.557,2.401 -3.899,3.275 l -1.507,0.987 0.208,-1.818 c 0.701,-5.521 2.615,-14.726 4.938,-23.913 z"
     id="path369"
     style="fill:#ffffff;fill-opacity:1;stroke:none;stroke-opacity:1" /><path
     d="m 116.41,186.685 c -0.177,0.408 -0.333,0.777 -0.52,1.196 -1.457,3.277 -3.127,6.642 -4.99,9.772 -1.281,7.798 -3.046,15.903 -5.874,23.393 -2.123,5.623 -4.301,11.215 -5.822,16.79 4.921,-5.141 8.571,-9.379 11.488,-13.982 -1.61,0.323 -2.963,0.574 -4.471,-0.208 1.688,-0.159 5.464,-2.696 7.694,-5.563 2.123,-4.41 3.927,-9.635 5.822,-16.32 -2.006,2.091 -4.109,3.914 -6.238,5.3 l -1.508,0.989 0.26,-1.768 c 0.809,-6.369 2.506,-13.857 4.159,-19.599 z"
     id="path371"
     style="fill:#ffffff;fill-opacity:1;stroke:none;stroke-opacity:1" /><path
     d="m 142.506,187.517 c -0.09,0.162 -0.166,0.303 -0.26,0.468 -1.202,2.114 -2.418,3.854 -3.743,5.406 -1.514,11.075 -3.356,15.023 -5.354,20.95 -1.646,4.878 -3.151,9.515 -3.743,15.023 3.717,-3.591 6.891,-8.324 9.461,-13.622 -1.987,0.379 -3.549,0.859 -5.302,-0.051 1.735,-0.163 5.596,-2.858 7.797,-5.821 1.476,-3.847 2.667,-7.813 3.586,-11.749 -0.946,0.547 -1.977,1.057 -3.171,1.509 l -1.299,0.468 0.156,-1.354 c 0.69,-5.427 1.292,-8.644 1.872,-11.227 z"
     id="path373"
     style="fill:#ffffff;fill-opacity:1;stroke:none;stroke-opacity:1" /><path
     d="m 128.886,188.609 c -0.71,1.489 -1.582,2.989 -2.496,4.47 -1.498,10.96 -2.81,15.797 -5.77,23.343 -2.135,5.438 -3.079,9.246 -3.639,13.773 3.546,-3.319 6.44,-7.273 8.837,-11.904 -1.914,0.371 -3.438,0.835 -5.146,-0.052 1.695,-0.158 5.467,-2.734 7.694,-5.613 1.679,-4.214 3.109,-8.918 4.366,-14.089 -1.586,1.085 -3.358,2.12 -5.354,3.172 l -1.404,0.78 0.208,-1.613 c 0.601,-4.723 1.577,-8.575 2.704,-12.267 z"
     id="path375"
     style="fill:#ffffff;fill-opacity:1;stroke:none;stroke-opacity:1" /><path
     d="m 151.967,190.74 c -0.465,0.878 -1.076,1.778 -1.767,2.703 -1.479,10.706 -2.726,14.433 -4.315,19.442 -1.245,3.924 -1.797,7.662 -2.027,12.477 2.662,-3.042 4.994,-6.756 6.965,-11.072 -1.591,0.348 -2.671,0.617 -4.263,-0.208 1.627,-0.152 4.352,-2.465 6.447,-5.199 1.204,-3.362 2.231,-6.991 3.118,-10.864 -0.859,0.645 -1.75,1.298 -2.755,1.872 l -0.988,0.57 -0.259,-1.092 c -0.784,-3.568 -0.596,-6.271 -0.156,-8.629 z"
     id="path377"
     style="fill:#ffffff;fill-opacity:1;stroke:none;stroke-opacity:1" /><path
     d="m 91.874,204.255 c -3.314,2.94 -7.028,5.302 -10.76,7.122 -0.006,0.016 0.006,0.036 0,0.052 -3.692,10.242 -4.49,17.1 -9.772,27.76 -3.941,7.951 -5.857,15.245 -7.174,21.677 6.617,-6.596 12.178,-15.155 16.687,-24.588 -1.839,0.363 -3.329,0.758 -4.99,-0.104 1.607,-0.151 5.125,-2.455 7.381,-5.147 3.71,-8.706 6.529,-17.887 8.628,-26.772 z"
     id="path379"
     style="fill:#ffffff;fill-opacity:1;stroke:none;stroke-opacity:1" /><path
     d="m 76.54,208.051 c -2.236,2.259 -4.71,4.253 -7.382,5.977 -3.738,10.349 -8.953,23.637 -15.023,33.843 -5.26,8.843 -9.619,16.584 -13.359,24.794 9.883,-8.486 18.559,-20.23 25.056,-32.644 -1.657,0.333 -3.035,0.591 -4.574,-0.208 1.524,-0.143 4.765,-2.169 7.018,-4.679 3.42,-7.259 6.063,-14.625 7.746,-21.574 -0.636,0.233 -1.3,0.477 -1.923,0.676 l -2.392,0.78 1.456,-2.027 c 1.131,-1.568 2.254,-3.223 3.377,-4.938 z"
     id="path381"
     style="fill:#ffffff;fill-opacity:1;stroke:none" /><path
     d="m 146.804,265.106 c 0.344,0.168 0.68,0.322 1.041,0.472 0.875,0.36 1.783,0.651 2.747,0.899 -1.275,0.891 -2.345,2.053 -3.267,3.41 -0.35,-0.031 -0.682,-0.104 -0.946,-0.191 0.256,-0.733 0.232,-1.566 0.047,-2.318 -0.149,-0.606 -0.434,-1.178 -0.805,-1.656 0.401,-0.227 0.921,-0.526 1.183,-0.616 z"
     id="path383"
     style="fill:#ffffff;fill-opacity:1;stroke:none;stroke-opacity:1" /><path
     d="m 143.585,266.145 c 0.168,-0.035 0.398,-0.009 0.521,0.048 0.381,0.182 0.86,0.823 1.041,1.563 0.183,0.74 0.063,1.486 -0.237,1.848 -0.253,0.304 -0.738,0.34 -1.135,0.328 -0.199,-0.004 -0.389,-0.009 -0.568,-0.044 -0.032,-0.008 -0.067,0.004 -0.095,0 0.054,-0.521 0.03,-1.062 -0.094,-1.564 -0.137,-0.558 -0.385,-1.102 -0.711,-1.563 0.078,-0.06 0.28,-0.188 0.616,-0.379 0.197,-0.11 0.494,-0.2 0.662,-0.237 z"
     id="path385"
     style="fill:#ffffff;fill-opacity:1;stroke:none;stroke-opacity:1" /><path
     d="m 140.555,267.045 c 0.08,0.01 0.128,0.066 0.19,0.094 0.381,0.182 0.812,0.823 0.993,1.563 0.182,0.74 0.063,1.486 -0.237,1.845 -0.253,0.31 -0.738,0.345 -1.136,0.333 0.186,-0.59 0.253,-1.207 0.142,-1.799 -0.123,-0.659 -0.425,-1.307 -0.9,-1.799 0.165,-0.082 0.514,-0.159 0.664,-0.188 0.09,-0.019 0.204,-0.057 0.284,-0.049 z"
     id="path387"
     style="fill:#ffffff;fill-opacity:1;stroke:none;stroke-opacity:1" /><path
     d="m 137.904,267.849 c 0.208,-0.012 0.453,0.113 0.615,0.19 0.415,0.197 0.736,0.706 0.852,1.324 0.117,0.622 0.014,1.289 -0.331,1.704 -0.251,0.307 -1.076,0.425 -1.514,0.476 0.143,-0.591 0.146,-1.203 0.047,-1.801 -0.099,-0.589 -0.329,-1.159 -0.663,-1.656 0.214,-0.062 0.76,-0.224 0.994,-0.237 z"
     id="path389"
     style="fill:#ffffff;fill-opacity:1;stroke:none;stroke-opacity:1" /><path
     d="m 258.235,265.465 c -0.345,0.168 -0.68,0.322 -1.041,0.472 -0.874,0.36 -1.783,0.651 -2.746,0.899 1.275,0.891 2.346,2.053 3.268,3.41 0.35,-0.031 0.682,-0.104 0.945,-0.192 -0.256,-0.732 -0.232,-1.565 -0.047,-2.317 0.148,-0.606 0.434,-1.178 0.805,-1.656 -0.403,-0.227 -0.922,-0.526 -1.184,-0.616 z"
     id="path391"
     style="fill:#ffffff;fill-opacity:1;stroke:none;stroke-opacity:1" /><path
     d="m 261.454,266.504 c -0.169,-0.035 -0.397,-0.009 -0.521,0.048 -0.381,0.182 -0.859,0.823 -1.04,1.563 -0.182,0.74 -0.063,1.486 0.237,1.848 0.253,0.304 0.738,0.34 1.135,0.328 0.199,-0.005 0.389,-0.009 0.568,-0.044 0.031,-0.008 0.067,0.004 0.095,0 -0.053,-0.521 -0.029,-1.062 0.095,-1.564 0.137,-0.558 0.385,-1.103 0.711,-1.563 -0.078,-0.06 -0.28,-0.188 -0.616,-0.379 -0.2,-0.11 -0.496,-0.199 -0.664,-0.237 z"
     id="path393"
     style="fill:#ffffff;fill-opacity:1;stroke:none;stroke-opacity:1" /><path
     d="m 264.485,267.405 c -0.081,0.01 -0.129,0.066 -0.19,0.094 -0.382,0.182 -0.813,0.823 -0.993,1.563 -0.183,0.74 -0.063,1.486 0.236,1.844 0.253,0.31 0.737,0.346 1.137,0.334 -0.186,-0.59 -0.254,-1.207 -0.143,-1.799 0.123,-0.659 0.426,-1.307 0.899,-1.799 -0.164,-0.082 -0.514,-0.159 -0.663,-0.188 -0.091,-0.02 -0.204,-0.058 -0.283,-0.049 z"
     id="path395"
     style="fill:#ffffff;fill-opacity:1;stroke:none;stroke-opacity:1" /><path
     d="m 267.135,268.208 c -0.208,-0.012 -0.454,0.113 -0.615,0.19 -0.415,0.197 -0.737,0.706 -0.853,1.324 -0.116,0.622 -0.013,1.289 0.332,1.704 0.251,0.307 1.075,0.424 1.514,0.475 -0.143,-0.59 -0.146,-1.202 -0.047,-1.8 0.099,-0.59 0.329,-1.159 0.663,-1.656 -0.213,-0.062 -0.761,-0.224 -0.994,-0.237 z"
     id="path397"
     style="fill:#ffffff;fill-opacity:1;stroke:none;stroke-opacity:1" /><path
     id="path2073_3_"
     d="m 298.089,281.994 c -2.126,-1.461 -2.187,-2.657 -0.136,-2.724 1.758,-0.057 3.609,3.035 2.276,3.805 -0.17,0.098 -1.132,-0.387 -2.14,-1.081 z"
     style="fill:#ffffff;fill-opacity:1;stroke:none;stroke-opacity:1" /><path
     id="path2069_3_"
     d="m 293.471,283.489 c -0.553,-0.204 -1.14,-0.867 -1.305,-1.473 -0.166,-0.604 -0.445,-1.02 -0.618,-0.922 -0.173,0.098 -1.302,-0.324 -2.509,-0.937 -3.307,-1.675 -5.789,-2.354 -7.693,-2.103 -1.506,0.198 -1.924,0.552 -3.408,2.875 -2.256,3.527 -2.955,3.84 -5.141,2.274 -2.172,-1.557 -2.109,-2.121 0.448,-4.067 2.276,-1.731 3.231,-3.065 2.767,-3.866 -0.186,-0.317 -1.846,-1.213 -3.691,-1.989 -1.844,-0.776 -1.318,-1.66 -1.435,-1.848 -0.119,-0.188 0.561,1.543 -0.834,0.953 -5.11,-2.156 2.916,-4.975 0.303,-2.026 0.599,-0.676 -0.363,-1.493 1.98,-0.773 1.878,1.008 6.101,1.468 7.817,1.389 2.934,-0.138 5.806,-2.642 7.525,-6.565 2.02,-4.609 2.771,-5.215 5.296,-4.277 1.136,0.422 2.154,0.917 2.259,1.101 0.316,0.547 -0.766,1.595 -1.992,1.933 -0.754,0.206 -1.091,0.64 -0.99,1.273 0.277,1.75 -1.57,3.815 -5.377,6.013 -2.624,1.516 -3.492,2.23 -3.115,2.563 0.914,0.812 4.17,-0.473 8.417,-3.323 2.268,-1.521 4.549,-3.197 5.067,-3.726 0.921,-0.936 0.973,-0.897 1.811,1.333 1.211,3.215 0.994,4.097 -0.982,3.983 -0.96,-0.053 -2.922,0.627 -5.085,1.768 -2.489,1.313 -4.243,1.872 -5.991,1.91 -5.7,0.131 -1.446,1.731 5.248,1.979 l 4.486,0.164 -1.241,1.377 c -0.761,0.845 -1.088,1.78 -0.843,2.419 0.965,2.528 0.634,3.256 -1.174,2.588 z"
     style="fill:#ffffff;fill-opacity:1;stroke:none;stroke-opacity:1" /><path
     id="path2061_3_"
     d="m 303.769,267.489 c -2.277,0.218 -3.363,-0.542 -2.662,-1.863 0.55,-1.042 2.264,-1.557 3.479,-1.048 1.133,0.475 2.672,2.635 1.904,2.671 -0.255,0.012 -1.478,0.12 -2.721,0.24 z"
     style="fill:#ffffff;fill-opacity:1;stroke:none;stroke-opacity:1" /><path
     id="path2059_3_"
     d="m 269.569,287.026 c -0.458,-1.338 0.548,-2.908 1.667,-2.606 0.726,0.192 0.808,0.507 0.397,1.481 -0.699,1.655 -1.698,2.198 -2.064,1.125 z"
     style="fill:#ffffff;fill-opacity:1;stroke:none;stroke-opacity:1" /><path
     id="path2053_3_"
     d="m 294.219,258.835 c -1.47,0.233 -1.715,-0.944 -0.516,-2.507 0.9,-1.171 1.395,-1.451 2.637,-1.491 2.095,-0.067 2.185,0.395 0.415,2.154 -0.831,0.829 -1.536,1.551 -1.563,1.603 -0.027,0.054 -0.465,0.163 -0.973,0.241 z"
     style="fill:#ffffff;fill-opacity:1;stroke:none;stroke-opacity:1" /><path
     id="path2073_2_"
     d="m 106.859,281.553 c 2.126,-1.461 2.187,-2.657 0.136,-2.723 -1.758,-0.057 -3.609,3.035 -2.276,3.804 0.17,0.1 1.132,-0.386 2.14,-1.081 z"
     style="fill:#ffffff;fill-opacity:1;stroke:none;stroke-opacity:1" /><path
     id="path2069_2_"
     d="m 111.478,283.047 c 0.552,-0.203 1.139,-0.867 1.304,-1.472 0.167,-0.604 0.445,-1.021 0.618,-0.922 0.173,0.098 1.302,-0.323 2.509,-0.936 3.307,-1.675 5.79,-2.354 7.694,-2.104 1.506,0.198 1.923,0.552 3.409,2.875 2.256,3.528 2.954,3.839 5.141,2.274 2.17,-1.557 2.109,-2.12 -0.449,-4.066 -2.276,-1.732 -3.232,-3.066 -2.767,-3.866 0.187,-0.318 1.846,-1.214 3.692,-1.989 1.844,-0.777 1.318,-1.66 1.435,-1.849 0.118,-0.188 -0.562,1.543 0.833,0.954 5.111,-2.157 -2.916,-4.975 -0.303,-2.026 -0.599,-0.676 0.364,-1.493 -1.981,-0.773 -1.877,1.008 -6.1,1.468 -7.816,1.388 -2.935,-0.138 -5.806,-2.641 -7.525,-6.566 -2.02,-4.607 -2.771,-5.213 -5.297,-4.276 -1.135,0.422 -2.153,0.917 -2.258,1.101 -0.316,0.547 0.766,1.595 1.992,1.934 0.754,0.206 1.09,0.64 0.99,1.273 -0.277,1.749 1.57,3.815 5.377,6.012 2.625,1.516 3.493,2.23 3.115,2.564 -0.915,0.811 -4.169,-0.474 -8.417,-3.323 -2.268,-1.521 -4.549,-3.198 -5.067,-3.726 -0.92,-0.936 -0.972,-0.898 -1.811,1.332 -1.21,3.215 -0.993,4.097 0.982,3.984 0.96,-0.054 2.922,0.627 5.085,1.767 2.49,1.314 4.244,1.873 5.992,1.911 5.7,0.13 1.446,1.731 -5.249,1.978 l -4.486,0.164 1.241,1.378 c 0.761,0.845 1.088,1.779 0.843,2.419 -0.965,2.528 -0.635,3.256 1.174,2.586 z"
     style="fill:#ffffff;fill-opacity:1;stroke:none;stroke-opacity:1" /><path
     id="path2061_2_"
     d="m 101.18,267.048 c 2.277,0.218 3.364,-0.541 2.662,-1.862 -0.549,-1.042 -2.263,-1.557 -3.479,-1.049 -1.132,0.476 -2.672,2.635 -1.903,2.672 0.253,0.012 1.477,0.12 2.72,0.239 z"
     style="fill:#ffffff;fill-opacity:1;stroke:none;stroke-opacity:1" /><path
     id="path2059_2_"
     d="m 135.379,286.586 c 0.458,-1.339 -0.547,-2.908 -1.667,-2.606 -0.725,0.192 -0.808,0.506 -0.397,1.481 0.699,1.656 1.698,2.199 2.064,1.125 z"
     style="fill:#ffffff;fill-opacity:1;stroke:none;stroke-opacity:1" /><path
     id="path2053_2_"
     d="m 110.73,258.395 c 1.47,0.234 1.713,-0.944 0.515,-2.507 -0.899,-1.17 -1.394,-1.45 -2.636,-1.491 -2.096,-0.066 -2.186,0.395 -0.416,2.154 0.832,0.83 1.537,1.551 1.563,1.603 0.029,0.054 0.466,0.163 0.974,0.241 z"
     style="fill:#ffffff;fill-opacity:1;stroke:none;stroke-opacity:1" /><g
     style="fill:#ffffff;fill-opacity:1;stroke:none;stroke-opacity:1"
     id="g409">
			<path
   clip-rule="evenodd"
   d="m 179.554,97.24 c -2.303,-4.867 -4.606,-9.733 -6.909,-14.6 l 7.474,2.219 3.073,6.631 0.027,0.057 0.058,0.021 6.312,2.254 c -3.345,0.826 -6.691,1.958 -10.035,3.418 z"
   id="path411"
   style="fill:#ffffff;fill-opacity:1;fill-rule:evenodd;stroke:none;stroke-opacity:1" />
			<path
   clip-rule="evenodd"
   d="m 226.76,97.24 c 2.304,-4.867 4.605,-9.733 6.908,-14.6 l -7.474,2.219 -3.073,6.631 -0.025,0.057 -0.059,0.021 -6.311,2.254 c 3.346,0.826 6.69,1.958 10.034,3.418 z"
   id="path413"
   style="fill:#ffffff;fill-opacity:1;fill-rule:evenodd;stroke:none;stroke-opacity:1" />
			<path
   clip-rule="evenodd"
   d="m 214.535,97.646 c 3.469,0.811 6.938,1.949 10.406,3.44 0.404,-0.853 0.808,-1.707 1.211,-2.56 -3.404,-1.453 -6.811,-2.567 -10.217,-3.363 -8.489,-1.985 -17.068,-1.985 -25.556,0 -3.405,0.795 -6.811,1.91 -10.217,3.363 0.404,0.853 0.808,1.707 1.211,2.56 3.47,-1.491 6.938,-2.629 10.407,-3.44 7.775,-1.816 14.978,-1.816 22.755,0 z"
   id="path415"
   style="fill:#ffffff;fill-opacity:1;fill-rule:evenodd;stroke:none;stroke-opacity:1" />
			<path
   clip-rule="evenodd"
   d="m 213.261,93.076 -4.418,-4.564 -0.042,-0.045 v -0.06 -7.439 l -5.645,-4.912 -5.644,4.912 v 7.439 0.06 l -0.042,0.045 -4.418,4.564 c 6.741,-1.244 13.468,-1.244 20.209,0 z"
   id="path417"
   style="fill:#ffffff;fill-opacity:1;fill-rule:evenodd;stroke:none;stroke-opacity:1" />
			<path
   clip-rule="evenodd"
   d="m 203.157,75.659 -5.892,5.127 -0.052,0.045 v 0.069 7.448 l -4.67,4.824 c -0.744,0.144 -1.489,0.303 -2.231,0.477 -0.064,0.015 -0.129,0.03 -0.193,0.045 l -6.682,-2.387 -3.074,-6.633 -0.028,-0.063 -0.065,-0.019 -8.068,-2.397 c -0.586,-0.51 -0.65,-1.125 0.192,-1.051 2.666,0.844 5.332,1.687 7.998,2.53 0.546,0.167 0.927,0.465 1.142,0.897 0.843,2.013 1.687,4.025 2.53,6.039 2.313,0.789 4.624,1.577 6.937,2.366 1.741,-1.659 3.482,-3.318 5.222,-4.978 0,-2.476 0,-4.951 0,-7.426 2.313,-2.094 4.625,-4.189 6.937,-6.283 2.313,2.094 4.624,4.189 6.937,6.283 0,2.476 0,4.951 0,7.426 1.741,1.66 3.481,3.319 5.224,4.978 2.311,-0.789 4.623,-1.577 6.937,-2.366 0.843,-2.013 1.686,-4.026 2.528,-6.039 0.242,-0.473 0.641,-0.751 1.144,-0.897 2.665,-0.843 5.331,-1.687 7.997,-2.53 0.841,-0.074 0.78,0.541 0.191,1.051 l -8.068,2.397 -0.064,0.019 -0.029,0.063 -3.073,6.633 -6.683,2.387 c -0.063,-0.015 -0.128,-0.03 -0.192,-0.045 -0.745,-0.174 -1.489,-0.333 -2.23,-0.477 l -4.672,-4.824 V 80.9 80.832 l -0.052,-0.045 z"
   id="path419"
   style="fill:#ffffff;fill-opacity:1;fill-rule:evenodd;stroke:none;stroke-opacity:1" />
			<path
   clip-rule="evenodd"
   d="m 203.404,84.431 c -0.003,0 -0.008,0 -0.014,0 -0.003,0 -0.008,0 -0.01,0 -0.463,0 -0.836,0.374 -0.836,0.834 0,0.461 0.374,0.835 0.836,0.835 0.001,0 0.006,0 0.01,-10e-4 0.005,10e-4 0.011,10e-4 0.014,10e-4 0.461,0 0.836,-0.375 0.836,-0.835 0,-0.46 -0.375,-0.834 -0.836,-0.834 z"
   id="path421"
   style="fill:#ffffff;fill-opacity:1;fill-rule:evenodd;stroke:none;stroke-opacity:1" />
			<path
   clip-rule="evenodd"
   d="m 203.798,68.435 c -0.123,0.227 -0.262,0.521 -0.221,0.789 0.157,1.02 1.755,-0.183 2.026,-0.396 v 0 2.392 0 c -0.348,-0.275 -1.137,-0.87 -1.633,-0.793 -1.019,0.156 0.185,1.755 0.397,2.026 v 0 h -2.392 v 0 c 0.275,-0.347 0.869,-1.137 0.792,-1.633 -0.156,-1.02 -1.756,0.183 -2.025,0.396 v 0 -2.392 0 c 0.346,0.275 1.137,0.869 1.633,0.793 1.02,-0.156 -0.184,-1.755 -0.396,-2.027 v 0 h 2.391 v 0 c -0.239,0.304 -0.435,0.593 -0.572,0.845 z"
   id="path423"
   style="fill:#ffffff;fill-opacity:1;fill-rule:evenodd;stroke:none;stroke-opacity:1" />
			<path
   clip-rule="evenodd"
   d="m 203.174,71.871 c 1.001,0 1.816,0.814 1.816,1.816 0,1.005 -0.814,1.819 -1.816,1.819 -1.005,0 -1.819,-0.813 -1.819,-1.819 0,-1.002 0.814,-1.816 1.819,-1.816 z"
   id="path425"
   style="fill:#ffffff;fill-opacity:1;fill-rule:evenodd;stroke:none;stroke-opacity:1" />
		</g><path
     clip-rule="evenodd"
     d="m 194.492,80.969 c 0,0 -4.427,1.104 -5.949,0.972 -1.522,-0.134 -4.565,0.322 -5.551,2.021 0,0 0.382,3.323 2.599,5.484 0,0 0.746,0.32 2.178,0.99 l 2.574,0.891 c 0,0 1.881,-2.178 3.465,-3.267 0,0 0,0 0.99,-0.792 0,0 -0.543,-0.682 0.019,-0.649 z"
     id="path427"
     style="fill:#ffffff;fill-opacity:1;fill-rule:evenodd;stroke:none;stroke-opacity:1" /><path
     clip-rule="evenodd"
     d="m 211.807,80.969 c 0,0 4.428,1.104 5.949,0.972 1.521,-0.134 4.565,0.322 5.551,2.021 0,0 -0.382,3.323 -2.599,5.484 0,0 -0.746,0.32 -2.179,0.99 l -2.573,0.891 c 0,0 -1.882,-2.178 -3.465,-3.267 0,0 0,0 -0.991,-0.792 0,0 0.544,-0.682 -0.019,-0.649 z"
     id="path429"
     style="fill:#ffffff;fill-opacity:1;fill-rule:evenodd;stroke:none;stroke-opacity:1" /><path
     clip-rule="evenodd"
     d="m 178.691,88.245 c -0.003,0 -0.008,0 -0.014,0 -0.003,0 -0.008,0 -0.01,0 -0.462,0 -0.836,0.374 -0.836,0.834 0,0.46 0.374,0.834 0.836,0.834 0.002,0 0.007,0 0.01,0 0.005,0 0.01,0 0.014,0 0.461,0 0.835,-0.374 0.835,-0.834 0,-0.46 -0.374,-0.834 -0.835,-0.834 z"
     id="path431"
     style="fill:#ffffff;fill-opacity:1;fill-rule:evenodd;stroke:none;stroke-opacity:1" /><path
     clip-rule="evenodd"
     d="m 227.825,88.392 c -0.004,0 -0.009,0 -0.015,0 -0.003,0 -0.009,0 -0.01,0 -0.463,0 -0.836,0.374 -0.836,0.834 0,0.46 0.373,0.834 0.836,0.834 10e-4,0 0.007,0 0.01,0 0.006,0 0.011,0 0.015,0 0.46,0 0.835,-0.374 0.835,-0.834 0,-0.46 -0.375,-0.834 -0.835,-0.834 z"
     id="path433"
     style="fill:#ffffff;fill-opacity:1;fill-rule:evenodd;stroke:none;stroke-opacity:1" /><g
     style="fill:#ffffff;fill-opacity:1;stroke:none;stroke-opacity:1"
     id="g435">
			<path
   clip-rule="evenodd"
   d="m 133.865,106.273 c -1.401,-1.977 -2.802,-3.953 -4.202,-5.93 l 3.485,0.399 1.88,2.699 0.017,0.022 0.027,0.005 2.974,0.505 c -1.419,0.629 -2.813,1.392 -4.181,2.3 z"
   id="path437"
   style="fill:#ffffff;fill-opacity:1;fill-rule:evenodd;stroke:none;stroke-opacity:1" />
			<path
   clip-rule="evenodd"
   d="m 154.786,102.584 c 0.641,-2.337 1.28,-4.673 1.921,-7.011 l -3.139,1.568 -0.843,3.178 -0.007,0.027 -0.024,0.015 -2.62,1.491 c 1.545,0.106 3.115,0.347 4.712,0.732 z"
   id="path439"
   style="fill:#ffffff;fill-opacity:1;fill-rule:evenodd;stroke:none;stroke-opacity:1" />
			<path
   clip-rule="evenodd"
   d="m 149.399,103.72 c 1.601,0.088 3.227,0.321 4.88,0.711 0.113,-0.41 0.225,-0.82 0.337,-1.229 -1.623,-0.378 -3.219,-0.605 -4.791,-0.692 -3.917,-0.217 -7.719,0.454 -11.325,1.997 -1.447,0.619 -2.869,1.379 -4.265,2.289 0.246,0.346 0.491,0.693 0.737,1.04 1.421,-0.932 2.869,-1.707 4.343,-2.337 3.304,-1.414 6.497,-1.977 10.084,-1.779 z"
   id="path441"
   style="fill:#ffffff;fill-opacity:1;fill-rule:evenodd;stroke:none;stroke-opacity:1" />
			<path
   clip-rule="evenodd"
   d="m 148.478,101.793 -2.314,-1.677 -0.022,-0.016 -0.005,-0.026 -0.581,-3.297 -2.885,-1.736 -2.118,2.619 0.582,3.297 0.005,0.026 -0.016,0.023 -1.602,2.367 c 2.89,-1.079 5.871,-1.604 8.956,-1.58 z"
   id="path443"
   style="fill:#ffffff;fill-opacity:1;fill-rule:evenodd;stroke:none;stroke-opacity:1" />
			<path
   clip-rule="evenodd"
   d="m 142.639,94.865 -2.211,2.733 -0.019,0.024 0.005,0.03 0.582,3.301 -1.693,2.503 c -0.318,0.122 -0.635,0.25 -0.951,0.385 -0.027,0.012 -0.055,0.024 -0.082,0.035 l -3.148,-0.536 -1.88,-2.699 -0.018,-0.026 -0.031,-0.003 -3.762,-0.432 c -0.3,-0.18 -0.376,-0.448 0.003,-0.48 1.247,0.165 2.495,0.33 3.742,0.496 0.255,0.031 0.448,0.134 0.577,0.309 0.53,0.826 1.062,1.652 1.593,2.479 1.086,0.168 2.172,0.337 3.259,0.506 0.641,-0.871 1.283,-1.743 1.924,-2.614 -0.193,-1.097 -0.387,-2.194 -0.58,-3.292 0.861,-1.108 1.723,-2.217 2.583,-3.326 1.188,0.748 2.376,1.495 3.565,2.242 0.193,1.097 0.387,2.194 0.581,3.292 0.901,0.599 1.802,1.198 2.704,1.797 0.962,-0.53 1.925,-1.06 2.889,-1.59 0.217,-0.958 0.433,-1.916 0.649,-2.874 0.071,-0.229 0.226,-0.383 0.436,-0.487 1.115,-0.582 2.231,-1.164 3.347,-1.746 0.367,-0.099 0.388,0.178 0.167,0.45 l -3.389,1.693 -0.027,0.013 -0.008,0.03 -0.843,3.181 -2.775,1.58 c -0.029,-0.001 -0.059,-0.003 -0.088,-0.005 -0.344,-0.019 -0.686,-0.031 -1.026,-0.037 l -2.447,-1.773 -0.583,-3.3 -0.005,-0.03 -0.026,-0.016 z"
   id="path445"
   style="fill:#ffffff;fill-opacity:1;fill-rule:evenodd;stroke:none;stroke-opacity:1" />
			<path
   clip-rule="evenodd"
   d="m 143.434,98.733 c -0.002,0 -0.004,0 -0.006,10e-4 -0.001,0 -0.003,0 -0.004,0.001 -0.205,0.036 -0.341,0.231 -0.306,0.435 0.036,0.205 0.231,0.341 0.437,0.305 0,0 0.002,0 0.004,-10e-4 0.002,0 0.004,0 0.006,0 0.204,-0.036 0.341,-0.231 0.305,-0.436 -0.037,-0.205 -0.232,-0.341 -0.436,-0.305 z"
   id="path447"
   style="fill:#ffffff;fill-opacity:1;fill-rule:evenodd;stroke:none;stroke-opacity:1" />
			<path
   clip-rule="evenodd"
   d="m 142.358,91.613 c -0.037,0.11 -0.075,0.251 -0.036,0.367 0.15,0.44 0.764,-0.218 0.867,-0.334 v 0 l 0.188,1.061 v 0 c -0.176,-0.095 -0.572,-0.297 -0.787,-0.224 -0.439,0.148 0.219,0.763 0.334,0.867 v 0 l -1.06,0.187 v 0 c 0.095,-0.176 0.296,-0.572 0.224,-0.786 -0.149,-0.439 -0.765,0.218 -0.867,0.334 v 0 l -0.187,-1.06 v 0 c 0.175,0.095 0.571,0.296 0.785,0.224 0.44,-0.149 -0.218,-0.763 -0.334,-0.867 v 0 l 1.061,-0.187 v 0 c -0.083,0.153 -0.147,0.296 -0.188,0.418 z"
   id="path449"
   style="fill:#ffffff;fill-opacity:1;fill-rule:evenodd;stroke:none;stroke-opacity:1" />
			<path
   clip-rule="evenodd"
   d="m 142.351,93.185 c 0.443,-0.078 0.868,0.219 0.946,0.664 0.079,0.445 -0.219,0.869 -0.662,0.947 -0.446,0.079 -0.87,-0.218 -0.948,-0.663 -0.079,-0.445 0.218,-0.87 0.664,-0.948 z"
   id="path451"
   style="fill:#ffffff;fill-opacity:1;fill-rule:evenodd;stroke:none;stroke-opacity:1" />
		</g><path
     clip-rule="evenodd"
     d="m 139.214,97.896 c 0,0 -1.876,0.835 -2.561,0.896 -0.686,0.06 -1.998,0.5 -2.303,1.329 0,0 0.43,1.443 1.581,2.228 0,0 0.356,0.084 1.042,0.269 l 1.211,0.194 c 0,0 0.664,-1.112 1.28,-1.718 0,0 0,0 0.376,-0.429 0,0 -0.294,-0.26 -0.042,-0.29 z"
     id="path453"
     style="fill:#ffffff;fill-opacity:1;fill-rule:evenodd;stroke:none;stroke-opacity:1" /><path
     clip-rule="evenodd"
     d="m 146.887,96.542 c 0,0 2.048,0.144 2.713,-0.034 0.664,-0.179 2.048,-0.214 2.618,0.461 0,0 0.09,1.503 -0.723,2.634 0,0 -0.306,0.201 -0.888,0.609 l -1.071,0.596 c 0,0 -1.004,-0.818 -1.791,-1.177 0,0 0,0 -0.501,-0.274 0,0 0.188,-0.344 -0.059,-0.286 z"
     id="path455"
     style="fill:#ffffff;fill-opacity:1;fill-rule:evenodd;stroke:none;stroke-opacity:1" /><path
     clip-rule="evenodd"
     d="m 132.78,102.354 c -0.001,0 -0.004,0.001 -0.006,0.001 -0.001,0 -0.004,0 -0.005,10e-4 -0.205,0.036 -0.341,0.23 -0.305,0.434 0.036,0.204 0.23,0.341 0.436,0.305 0,0 0.003,0 0.004,-0.001 0.003,0 0.005,-10e-4 0.007,-10e-4 0.204,-0.035 0.341,-0.23 0.305,-0.435 -0.036,-0.205 -0.232,-0.34 -0.436,-0.304 z"
     id="path457"
     style="fill:#ffffff;fill-opacity:1;fill-rule:evenodd;stroke:none;stroke-opacity:1" /><path
     clip-rule="evenodd"
     d="m 154.565,98.58 c -0.001,0 -0.004,0 -0.006,0.001 -0.001,0 -0.004,0 -0.005,0 -0.205,0.037 -0.342,0.231 -0.305,0.436 0.036,0.204 0.231,0.34 0.436,0.304 0.001,0 0.003,0 0.004,-0.001 0.002,0 0.005,0 0.006,0 0.204,-0.036 0.341,-0.231 0.305,-0.436 -0.036,-0.204 -0.23,-0.34 -0.435,-0.304 z"
     id="path459"
     style="fill:#ffffff;fill-opacity:1;fill-rule:evenodd;stroke:none;stroke-opacity:1" /><g
     style="fill:#ffffff;fill-opacity:1;stroke:none;stroke-opacity:1"
     id="g461">
			<path
   clip-rule="evenodd"
   d="m 271.762,106.958 c 1.468,-1.927 2.938,-3.854 4.406,-5.781 l -3.498,0.278 -1.972,2.631 -0.018,0.022 -0.027,0.004 -2.989,0.402 c 1.395,0.677 2.762,1.488 4.098,2.444 z"
   id="path463"
   style="fill:#ffffff;fill-opacity:1;fill-rule:evenodd;stroke:none;stroke-opacity:1" />
			<path
   clip-rule="evenodd"
   d="m 250.983,102.541 c -0.559,-2.358 -1.116,-4.715 -1.674,-7.073 l 3.081,1.676 0.732,3.206 0.006,0.027 0.023,0.016 2.567,1.582 c -1.548,0.051 -3.127,0.236 -4.735,0.566 z"
   id="path465"
   style="fill:#ffffff;fill-opacity:1;fill-rule:evenodd;stroke:none;stroke-opacity:1" />
			<path
   clip-rule="evenodd"
   d="m 256.326,103.864 c -1.603,0.032 -3.235,0.208 -4.902,0.54 -0.098,-0.413 -0.195,-0.827 -0.294,-1.24 1.636,-0.321 3.239,-0.493 4.813,-0.524 3.922,-0.08 7.699,0.723 11.249,2.391 1.424,0.669 2.819,1.478 4.182,2.436 -0.258,0.338 -0.516,0.676 -0.772,1.014 -1.388,-0.98 -2.807,-1.806 -4.259,-2.488 -3.254,-1.528 -6.425,-2.201 -10.017,-2.129 z"
   id="path467"
   style="fill:#ffffff;fill-opacity:1;fill-rule:evenodd;stroke:none;stroke-opacity:1" />
			<path
   clip-rule="evenodd"
   d="m 257.313,101.97 2.373,-1.595 0.022,-0.016 0.006,-0.026 0.696,-3.274 2.942,-1.634 2.026,2.69 -0.696,3.275 -0.007,0.026 0.016,0.023 1.519,2.422 c -2.85,-1.178 -5.812,-1.807 -8.897,-1.891 z"
   id="path469"
   style="fill:#ffffff;fill-opacity:1;fill-rule:evenodd;stroke:none;stroke-opacity:1" />
			<path
   clip-rule="evenodd"
   d="m 263.39,95.25 2.115,2.808 0.019,0.025 -0.006,0.029 -0.697,3.278 1.604,2.561 c 0.313,0.133 0.626,0.272 0.938,0.418 0.026,0.012 0.054,0.025 0.079,0.038 l 3.165,-0.426 1.975,-2.631 0.018,-0.025 0.031,-0.002 3.775,-0.3 c 0.306,-0.17 0.391,-0.435 0.014,-0.48 -1.252,0.122 -2.505,0.243 -3.758,0.365 -0.255,0.022 -0.451,0.118 -0.587,0.288 -0.559,0.807 -1.117,1.614 -1.677,2.421 -1.092,0.131 -2.184,0.262 -3.276,0.393 -0.609,-0.894 -1.221,-1.787 -1.831,-2.68 0.23,-1.089 0.463,-2.179 0.694,-3.269 -0.821,-1.138 -1.645,-2.276 -2.466,-3.414 -1.214,0.706 -2.427,1.411 -3.641,2.116 -0.231,1.09 -0.464,2.18 -0.695,3.27 -0.921,0.567 -1.843,1.134 -2.765,1.702 -0.943,-0.563 -1.887,-1.126 -2.831,-1.69 -0.184,-0.965 -0.366,-1.93 -0.549,-2.895 -0.063,-0.231 -0.212,-0.39 -0.419,-0.502 -1.094,-0.62 -2.189,-1.241 -3.284,-1.861 -0.362,-0.111 -0.394,0.165 -0.183,0.444 l 3.328,1.811 0.026,0.014 0.007,0.031 0.732,3.208 2.718,1.676 c 0.029,-0.001 0.06,-0.001 0.09,-0.002 0.344,-0.007 0.686,-0.007 1.025,-10e-4 l 2.509,-1.687 0.696,-3.278 0.006,-0.03 0.027,-0.015 z"
   id="path471"
   style="fill:#ffffff;fill-opacity:1;fill-rule:evenodd;stroke:none;stroke-opacity:1" />
			<path
   clip-rule="evenodd"
   d="m 262.461,99.088 c 0.003,0 0.004,0.001 0.006,0.001 0.002,0 0.003,0 0.006,0.001 0.202,0.043 0.332,0.243 0.289,0.445 -0.043,0.202 -0.243,0.333 -0.446,0.29 -10e-4,0 -0.003,-0.001 -0.005,-0.002 -0.002,0 -0.004,0 -0.006,0 -0.202,-0.043 -0.332,-0.243 -0.29,-0.446 0.043,-0.202 0.244,-0.332 0.446,-0.289 z"
   id="path473"
   style="fill:#ffffff;fill-opacity:1;fill-rule:evenodd;stroke:none;stroke-opacity:1" />
			<path
   clip-rule="evenodd"
   d="m 263.785,92.01 c 0.033,0.111 0.066,0.254 0.023,0.368 -0.164,0.435 -0.756,-0.244 -0.854,-0.364 v 0 l -0.224,1.054 v 0 c 0.178,-0.089 0.581,-0.277 0.794,-0.197 0.433,0.164 -0.247,0.755 -0.366,0.854 v 0 l 1.054,0.224 v 0 c -0.088,-0.178 -0.276,-0.582 -0.195,-0.793 0.164,-0.434 0.756,0.245 0.854,0.364 v 0 l 0.224,-1.053 v 0 c -0.179,0.089 -0.582,0.276 -0.793,0.196 -0.434,-0.164 0.245,-0.755 0.363,-0.855 v 0 l -1.054,-0.224 v 0 c 0.078,0.158 0.138,0.303 0.174,0.426 z"
   id="path475"
   style="fill:#ffffff;fill-opacity:1;fill-rule:evenodd;stroke:none;stroke-opacity:1" />
			<path
   clip-rule="evenodd"
   d="m 263.739,93.581 c -0.441,-0.093 -0.876,0.189 -0.97,0.63 -0.094,0.442 0.188,0.876 0.629,0.97 0.442,0.094 0.877,-0.188 0.971,-0.63 0.093,-0.441 -0.189,-0.876 -0.63,-0.97 z"
   id="path477"
   style="fill:#ffffff;fill-opacity:1;fill-rule:evenodd;stroke:none;stroke-opacity:1" />
		</g><path
     clip-rule="evenodd"
     d="m 266.708,98.398 c 0,0 1.845,0.901 2.527,0.985 0.683,0.083 1.979,0.569 2.254,1.408 0,0 -0.479,1.428 -1.657,2.172 0,0 -0.358,0.071 -1.051,0.232 l -1.217,0.151 c 0,0 -0.623,-1.134 -1.22,-1.762 0,0 0,0 -0.36,-0.441 0,0 0.303,-0.25 0.052,-0.288 z"
     id="path479"
     style="fill:#ffffff;fill-opacity:1;fill-rule:evenodd;stroke:none;stroke-opacity:1" /><path
     clip-rule="evenodd"
     d="m 259.086,96.778 c 0,0 -2.051,0.072 -2.71,-0.128 -0.657,-0.202 -2.039,-0.286 -2.632,0.369 0,0 -0.142,1.499 0.631,2.658 0,0 0.299,0.21 0.867,0.639 l 1.049,0.633 c 0,0 1.033,-0.782 1.832,-1.113 0,0 0,0 0.509,-0.256 0,0 -0.176,-0.351 0.069,-0.284 z"
     id="path481"
     style="fill:#ffffff;fill-opacity:1;fill-rule:evenodd;stroke:none;stroke-opacity:1" /><path
     clip-rule="evenodd"
     d="m 272.982,103.08 c 0.002,0 0.004,0 0.007,0.001 0,0 0.004,0 0.004,10e-4 0.204,0.043 0.334,0.242 0.29,0.445 -0.043,0.202 -0.242,0.333 -0.446,0.289 0,0 -0.004,0 -0.004,-0.001 -0.003,0 -0.004,0 -0.007,-0.001 -0.202,-0.043 -0.332,-0.243 -0.289,-0.445 0.044,-0.203 0.243,-0.333 0.445,-0.289 z"
     id="path483"
     style="fill:#ffffff;fill-opacity:1;fill-rule:evenodd;stroke:none;stroke-opacity:1" /><path
     clip-rule="evenodd"
     d="m 251.341,98.547 c 0.003,0 0.005,0 0.007,0.001 0.002,0.001 0.004,0.001 0.005,0.001 0.202,0.043 0.332,0.243 0.289,0.445 -0.043,0.202 -0.242,0.333 -0.445,0.29 -0.001,0 -0.003,0 -0.005,-0.002 -0.001,0 -0.005,0 -0.006,0 -0.202,-0.043 -0.332,-0.243 -0.289,-0.446 0.043,-0.203 0.243,-0.333 0.444,-0.289 z"
     id="path485"
     style="fill:#ffffff;fill-opacity:1;fill-rule:evenodd;stroke:none;stroke-opacity:1" /><circle
     id="circle663"
     cx="202.5"
     cy="205.005"
     style="fill:none;fill-opacity:1;stroke:#ffffff;stroke-width:5;stroke-opacity:1"
     r="38.43" /><path
     id="path488"
     style="fill:#ffffff;fill-opacity:1;fill-rule:evenodd;stroke:none;stroke-opacity:1"
     d="m 219.45623,175.75929 c -0.17889,4.7e-4 -0.36199,0.014 -0.53874,0.033 -0.71,0.077 -1.33407,0.23507 -1.63507,0.45707 -0.3,0.222 -0.27704,0.50499 -0.20104,0.91098 0.082,0.405 0.20904,0.93424 0.20104,1.57224 0.003,0.641 -0.13759,1.39022 -1.43559,1.91622 -1.29499,0.527 -3.74513,0.82879 -6.50413,1.00679 -2.75199,0.178 -5.81799,0.22967 -8.86798,0.0927 0.006,2.603 0.0156,5.20856 0.0456,7.69156 0.025,2.484 0.0708,4.84988 0.0738,6.44288 0.003,1.595 -0.0351,2.41472 -0.0801,3.22772 -0.046,0.811 -0.0963,1.60916 -0.5623,2.02616 -0.465,0.419 -1.34329,0.45676 -2.05129,0.49476 -0.711,0.037 -1.25037,0.084 -2.18637,-1.19999 -0.93599,-1.284 -2.26738,-3.89563 -3.92038,-6.97062 -1.655,-3.074 -3.633,-6.60894 -5.61199,-10.14494 -1.91,0.072 -3.81795,0.13837 -5.42195,0.11937 -1.602,-0.018 -2.89711,-0.12339 -3.60311,0.21361 -0.705,0.333 -0.82125,1.10629 -0.66125,1.76229 0.159,0.655 0.59184,1.19431 1.21884,1.42931 0.626,0.235 1.44215,0.16591 2.34815,0.18691 0.905,0.02 1.90331,0.12815 2.89631,0.27015 -0.478,1.402 -1.0618,2.77219 -1.5958,3.73819 -0.534,0.966 -1.01961,1.52742 -1.40261,2.08741 -0.382,0.556 -0.65828,1.11263 -0.59528,1.65863 0.062,0.552 0.46413,1.09584 0.91413,1.50784 0.448,0.408 0.94455,0.68628 1.52355,0.30628 0.58,-0.378 1.23978,-1.41386 1.91778,-2.64186 0.681,-1.228 1.37927,-2.64716 2.10626,-2.91516 0.728,-0.268 1.4837,0.61852 2.0937,1.58951 0.611,0.971 1.07497,2.02825 1.54397,3.02825 0.47,0.999 0.9435,1.93596 1.3335,2.74396 0.393,0.809 0.70243,1.48763 0.86543,1.93663 0.162,0.447 0.17808,0.66543 0.13508,0.87643 -2.554,0.248 -5.11363,0.45477 -7.24863,0.48377 -2.136,0.029 -3.84498,-0.11722 -4.74498,0.45078 -0.898,0.569 -0.98624,1.84886 0.19476,2.65285 1.178,0.804 3.62387,1.12978 5.57587,0.75078 0.09,3.888 0.10724,7.76963 0.0832,10.80462 -0.019,3.038 -0.0806,5.21865 -0.25759,6.61565 -0.18,1.395 -0.47509,1.99902 -0.98009,2.31202 -0.508,0.316 -1.22135,0.33781 -1.94135,0.39581 -0.719,0.057 -1.44357,0.15295 -1.75757,0.68795 -0.313,0.536 -0.21585,1.51603 0.28115,2.00103 0.496,0.491 1.39465,0.4848 2.49264,0.4288 1.097,-0.046 2.39898,-0.14821 3.29998,-0.17121 0.9,-0.018 1.39877,0.038 1.63977,-0.26701 0.241,-0.309 0.22405,-0.97901 0.20105,-2.03401 -0.022,-1.058 -0.0457,-2.49508 0.0503,-6.04707 0.1,-3.559 0.31986,-9.22165 0.58586,-14.88364 1.708,-0.214 3.42755,-0.35594 5.04655,-0.42094 1.619,-0.063 3.14055,-0.0529 4.16855,0.0141 1.025,0.063 1.55672,0.17882 2.06072,0.37382 0.222,4.595 0.38075,9.19101 0.50575,12.65801 0.125,3.461 0.21774,5.78977 -0.0503,6.96277 -0.267,1.17099 -0.89736,1.18284 -1.60836,1.19684 -0.714,0.014 -1.50891,0.0294 -1.95391,0.26545 -0.447,0.236 -0.54428,0.68574 -0.59528,1.12774 -0.054,0.441 -0.064,0.86985 0.31099,1.18585 0.377,0.314 1.13873,0.5186 2.31673,0.5356 1.179,0.016 2.77219,-0.15362 4.02719,-0.19162 1.25,-0.039 2.15658,0.0517 2.64658,-0.31728 0.492,-0.369 0.57474,-1.19839 0.23874,-1.85339 -0.334,-0.651 -1.08486,-1.12845 -1.17486,-1.72145 -0.082,-0.598 0.48762,-1.31371 1.08062,-2.06071 0.592,-0.743 1.19622,-1.51949 1.89422,-2.23349 0.693,-0.719 1.48196,-1.37781 2.15496,-1.87381 0.674,-0.498 1.2374,-0.83046 1.83139,-1.09946 1.002,1.74499 2.08559,3.44867 3.21359,5.09367 1.132,1.65 2.31332,3.24244 3.16332,4.11044 0.85,0.86899 1.36477,1.01349 2.25077,1.03349 0.889,0.02 2.14194,-0.0817 3.07694,-0.0817 0.93399,-0.006 1.54485,0.0907 2.06385,0.005 0.521,-0.09 0.95304,-0.35908 1.10104,-0.72408 0.146,-0.361 0.009,-0.82099 -0.12094,-1.19999 -0.134,-0.378 -0.26433,-0.68374 -0.79633,-0.81674 -0.526,-0.137 -1.44989,-0.10678 -2.29789,-0.16178 -0.84399,-0.051 -1.61333,-0.18725 -2.56332,-0.96125 -0.95,-0.766 -2.07876,-2.17068 -3.16176,-3.61568 -1.079,-1.44399 -2.1147,-2.92926 -3.2717,-4.46226 -1.156,-1.526 -2.43885,-3.1008 -3.84185,-4.8298 -1.394,-1.733 -2.9081,-3.62197 -3.0361,-4.78897 -0.135,-1.16399 1.11507,-1.61055 2.52406,-1.81255 1.407,-0.197 2.96645,-0.15049 5.27745,-0.15549 2.31499,-0.007 5.37848,-0.0691 8.44547,-0.12408 -0.313,2.11499 0.0834,4.64385 0.87643,5.90885 0.796,1.26599 1.99281,1.26621 2.75181,0.73821 0.755,-0.532 1.07089,-1.59039 1.10889,-2.74239 0.048,-1.15199 -0.16922,-2.3998 -0.12722,-3.6408 0.05,-1.24 0.36142,-2.47707 -0.57958,-3.11306 -0.94099,-0.634 -3.13959,-0.6691 -5.54759,-0.6801 -2.412,-0.012 -5.04766,1.1e-4 -8.08265,0.0581 -3.032,0.059 -6.46378,0.16485 -9.89678,0.31885 -0.04,-3.127 -0.0595,-6.25603 -0.10052,-8.79103 -0.042,-2.53899 -0.10174,-4.48023 0.0613,-5.71723 0.161,-1.23599 0.54454,-1.76173 1.82354,-2.02773 1.284,-0.269 3.45542,-0.27682 5.92141,-0.36282 2.465,-0.084 5.21186,-0.24652 7.96486,-0.41152 0.158,-1.49999 0.2758,-3.00259 0.4068,-4.38059 0.137,-1.37699 0.28573,-2.62599 -0.0393,-3.25599 -0.2415,-0.4725 -0.74813,-0.59355 -1.2848,-0.59214 z m -14.28522,33.23846 c 0.29,-0.016 0.57309,0.0769 0.99109,0.44293 0.42,0.36399 0.98643,1.00347 1.47643,1.67747 0.485,0.668 0.90195,1.37615 1.27695,2.03715 0.374,0.664 0.70554,1.28081 0.65654,1.86281 -0.05,0.584 -0.4831,1.12818 -0.9801,1.70418 -0.49,0.572 -1.0417,1.17206 -1.7937,1.64606 -0.744,0.472 -1.69227,0.81929 -2.08427,-0.89371 -0.395,-1.712 -0.23894,-5.4829 0.45706,-8.47689 z" /></g>
		
	</g></g>

</svg>
